<svg width="567" height="290" viewBox="0 0 567 290" fill="none" xmlns="http://www.w3.org/2000/svg">
<path opacity="0.4" d="M567 172.446C567 233.518 416.084 290 271.405 290C126.726 290 0 240.491 0 179.419C0 118.348 126.726 179.419 271.405 179.419C416.084 179.419 567 111.374 567 172.446Z" fill="#B9DBF4"/>
<g clip-path="url(#clip0_64_1387)">
<path d="M359.549 181.536C359.428 183.048 358.999 189.422 359.984 194.182C360.05 194.501 360.194 194.799 360.401 195.051C360.609 195.303 360.875 195.501 361.176 195.627C366.347 197.798 371.704 199.494 377.183 200.695C388.386 203.22 399.998 204.029 410.283 204.005C427.184 203.966 440.515 201.688 442.568 201.114C446.522 199.977 446.199 194.466 446.199 194.466L444.827 112.625C444.827 112.625 448.338 103.746 410.061 113.3C371.785 122.853 365.044 122.988 365.044 122.988C365.044 122.988 358.767 148.039 361.51 162.632L359.68 164.896C359.423 165.215 359.279 165.609 359.269 166.018L359.028 173.924C359.018 174.173 359.075 174.421 359.192 174.642L359.622 175.432C359.698 175.58 359.719 175.752 359.68 175.914C359.641 176.077 359.545 176.22 359.409 176.318L358.709 176.8C358.607 176.871 358.526 176.968 358.475 177.08C358.424 177.193 358.405 177.318 358.419 177.441C358.534 178.656 358.875 179.838 359.424 180.929C359.525 181.114 359.569 181.325 359.549 181.536Z" fill="#319885"/>
<path d="M485.682 190.993C486.365 191.102 487.027 191.318 487.642 191.633C487.642 191.633 492.384 173.009 483.297 169.285C474.209 165.561 478.019 167.936 478.019 167.936L485.682 190.993Z" fill="#404041"/>
<path d="M464.827 196.186C464.861 197.554 466.276 198.349 467.068 198.869C467.7 199.282 468.437 199.506 469.192 199.515C471.795 199.549 479.207 199.563 482.196 198.768C485.856 197.805 485.856 188.049 485.856 188.049C485.957 173.505 480.916 170.267 480.916 170.267C480.916 170.267 464.016 166.384 464.827 196.186Z" fill="#1A1A1A"/>
<path d="M475.76 193.31C475.76 193.31 479.41 195.931 481.187 192.25C483.456 187.553 482.959 176.27 477.29 172.271C477.29 172.271 473.398 172.575 472.544 179.117C471.689 185.66 472.515 193.806 475.76 193.31Z" fill="#666666"/>
<path d="M529.584 180.876C529.869 181.386 530.98 182.576 531.071 183.366C531.212 184.638 531.83 185.81 532.8 186.647C533.05 186.864 533.343 187.025 533.661 187.119C533.978 187.213 534.312 187.237 534.64 187.192C534.953 187.146 535.253 187.036 535.522 186.871C535.791 186.705 536.023 186.486 536.204 186.228C536.903 185.243 537.27 184.062 537.252 182.856C537.228 181.546 537.12 180.24 536.929 178.944C536.929 178.944 540.463 167.651 536.117 166.327C531.772 165.002 523.38 169.872 529.584 180.876Z" fill="#404041"/>
<path d="M534.451 187.211C534.451 187.211 530.274 187.625 527.102 188.039C526.947 188.063 526.789 188.048 526.641 187.997C526.493 187.946 526.359 187.86 526.252 187.746C525.499 186.96 524.412 185.337 524.804 182.668L531.134 180.293C531.134 180.293 529.888 186.079 534.451 187.211Z" fill="#4D4D4D"/>
<path d="M469.603 110.876L444.494 106.102L445.735 167.936L465.127 135.586C465.127 135.586 471.887 111.941 469.603 110.876Z" fill="#319885"/>
<path d="M444.103 200.3L445.431 200.382C447.286 200.498 449.148 200.314 450.945 199.838L475.759 193.31C471.621 179.19 475.45 173.447 478.541 171.149C480.376 169.8 483.065 169.887 484.61 171.558C489.873 177.258 487.643 191.609 487.643 191.609L532.583 180.731C532.163 176.737 531.656 172.705 531.747 168.875C531.772 168.34 532 167.835 532.384 167.462C532.769 167.088 533.282 166.875 533.819 166.866C534.311 166.876 534.786 167.052 535.165 167.365C535.545 167.678 535.807 168.11 535.91 168.591C536.521 172.049 536.794 175.558 536.726 179.069C540.473 177.084 545.229 174.473 547.88 171.684C548.264 171.277 548.561 170.796 548.754 170.271C548.946 169.746 549.03 169.188 549 168.629L546.586 116.624C546.515 115.089 546.101 113.589 545.374 112.235C544.317 110.271 542.652 108.701 540.627 107.759C531.617 103.568 505.243 91.6061 490.854 87.699C490.854 87.699 481.365 89.5875 479.569 94.7279C477.773 99.8682 464.842 140.538 445.696 164.53V195.492C445.696 195.492 447.116 199.173 444.103 200.3Z" fill="#33BCA2"/>
<path d="M470.718 119.36L541.332 127.068C541.66 127.107 541.991 127.015 542.252 126.814C542.514 126.612 542.686 126.316 542.732 125.989C543.278 122.101 542.471 115.593 542.1 112.953C542.048 112.597 541.906 112.259 541.688 111.974C541.469 111.688 541.18 111.462 540.849 111.32C499.608 93.5187 482.017 91.7265 482.017 91.7265C482.017 91.7265 479.492 93.6536 479.038 96.1683C478.584 98.6831 470.718 119.36 470.718 119.36Z" fill="#DDE5E9"/>
<path d="M515.953 96.8621C515.862 96.0024 515.701 95.1516 515.47 94.3184C515.23 93.5006 514.804 92.7487 514.226 92.1207C513.649 91.4926 512.935 91.0051 512.139 90.6956L487.242 80.9785C486.297 80.6102 485.286 80.4427 484.272 80.4866C483.259 80.5306 482.265 80.7851 481.356 81.2339L481.076 81.3736L459.106 71.7818C454.976 69.9758 450.566 68.8921 446.069 68.5781L441.24 68.2409C420.911 66.4584 382.596 75.077 380.346 76.4597C378.85 77.4504 377.551 78.708 376.512 80.1692C376.512 80.1692 402.263 71.2711 435.769 71.4976C435.769 71.4976 439.98 71.353 440.656 76.4886L439.787 101.14L444.615 102.051C444.615 102.051 444.736 74.9373 445.668 73.6655C446.6 72.3936 447.411 70.6015 452.138 72.2828C456.865 73.9642 484.205 86.2538 484.205 86.2538C484.205 86.2538 486.368 86.3453 490.859 87.699L515.953 96.8621Z" fill="#319885"/>
<path d="M361.278 157.915C361.379 160.835 361.529 162.612 361.529 162.612C363.127 170.667 411.906 169.169 411.906 169.169C424.89 168.947 432.553 167.863 436.831 165.797C438.23 165.122 439.403 164.057 440.208 162.731C441.012 161.405 441.414 159.874 441.365 158.325L441.225 153.83L439.849 110.303C439.849 110.303 423.953 110.751 395.397 116.392C366.84 122.034 365.063 122.935 365.063 122.935C361.094 134.767 361.017 150.26 361.278 157.915Z" fill="#DDE5E9"/>
<path d="M369.612 106.733L439.791 101.121L440.462 82.0625L440.66 76.4693C440.683 75.8173 440.573 75.1674 440.337 74.5591C440.1 73.9508 439.743 73.3967 439.285 72.9305C438.828 72.4642 438.28 72.0955 437.676 71.8467C437.071 71.5979 436.423 71.4742 435.769 71.4831C415.773 71.6758 396.387 74.0942 377.825 79.5477C376.611 79.906 375.586 80.7261 374.972 81.8312C373.379 84.8272 372.175 88.0131 371.389 91.3122C370.148 96.3574 369.551 101.539 369.612 106.733Z" fill="#DDE5E9"/>
<path d="M444.644 102.031C444.351 92.9469 444.596 83.8532 445.378 74.7976C445.425 74.2605 445.59 73.7404 445.863 73.2751C446.136 72.8098 446.509 72.4109 446.956 72.1074C447.402 71.8039 447.911 71.6034 448.445 71.5204C448.979 71.4374 449.525 71.4741 450.043 71.6276C462.94 75.4335 484.2 86.2634 484.2 86.2634L467.3 109.807C467.3 109.807 465.663 107.74 460.878 106.353C456.093 104.965 444.644 102.031 444.644 102.031Z" fill="#319885"/>
<path d="M430.163 112.023C434.026 110.183 458.445 114.721 462.515 115.699C462.67 115.732 465.156 116.513 462.964 115.771C465.774 116.012 469.217 112.88 469.613 110.876C469.734 110.26 467.126 108.583 466.547 108.333C465.528 107.894 464.21 107.413 462.684 106.916C457.855 105.341 451.023 103.578 445.393 102.21C438.868 100.623 432.126 100.115 425.436 100.706C406.996 102.335 368.343 106.006 359.057 108.834C358.748 108.929 358.474 109.113 358.271 109.364C358.067 109.614 357.942 109.919 357.913 110.24C357.67 112.717 357.627 115.209 357.782 117.693C357.843 118.65 358.182 119.567 358.76 120.333C359.338 121.098 360.128 121.678 361.032 122C363.224 122.781 366.715 123.445 371.824 122.829L409.936 118.527C412.463 118.215 414.847 117.185 416.803 115.559" fill="#319885"/>
<path d="M371.403 91.3122C387.777 83.8257 440.453 82.0577 440.453 82.0577L440.651 76.4645C440.673 75.8137 440.563 75.1652 440.326 74.5581C440.09 73.951 439.734 73.3979 439.277 72.9323C438.821 72.4667 438.275 72.0983 437.672 71.8492C437.069 71.6001 436.421 71.4756 435.769 71.4831C415.773 71.6758 396.387 74.0942 377.825 79.5477C376.611 79.906 375.586 80.7261 374.972 81.8312C373.384 84.8279 372.185 88.0138 371.403 91.3122Z" fill="#73B295"/>
<path d="M357.695 115.453L351.654 116.445C351.5 116.471 351.359 116.55 351.257 116.669C351.155 116.788 351.099 116.939 351.099 117.096V117.717C351.1 117.851 351.061 117.981 350.985 118.091C350.91 118.201 350.803 118.286 350.679 118.334C349.508 118.77 348.283 119.047 347.038 119.158L344.518 116.884C349.346 119.182 348.472 126.562 346.222 129.891C344.658 132.209 344.368 135.287 344.334 136.939C344.325 137.279 344.189 137.603 343.952 137.848C343.715 138.092 343.395 138.239 343.055 138.259C339.839 138.471 338.086 137.214 337.26 136.304C336.858 135.853 336.599 135.292 336.517 134.694C335.666 129.25 335.84 123.696 337.028 118.315C337.312 117.122 337.943 116.041 338.842 115.205C339.74 114.37 340.867 113.82 342.079 113.622L357.835 111.05" fill="#73B295"/>
<path d="M429.284 111.435C429.387 111.436 429.488 111.404 429.571 111.344C429.655 111.283 429.716 111.198 429.748 111.1C429.779 111.002 429.778 110.896 429.745 110.799C429.712 110.702 429.649 110.617 429.564 110.558C429.482 110.501 427.546 109.152 425.614 109.417C425.486 109.435 425.37 109.502 425.293 109.605C425.215 109.708 425.181 109.838 425.199 109.966C425.217 110.094 425.285 110.209 425.388 110.287C425.491 110.364 425.621 110.398 425.749 110.38C427.29 110.168 428.989 111.344 429.009 111.344C429.089 111.402 429.185 111.434 429.284 111.435Z" fill="#404041"/>
<path d="M420.216 109.017C420.216 109.017 416.493 109.812 416.951 117.105C416.98 117.587 417.009 118.069 417.029 118.551C417.116 120.704 417.487 127.015 419.008 131.524C419.122 131.858 419.318 132.158 419.576 132.397C419.835 132.637 420.149 132.809 420.491 132.897C422.541 133.446 424.691 133.504 426.768 133.066C427.492 132.922 428.173 132.614 428.759 132.167C429.345 131.719 429.82 131.143 430.148 130.484C431.346 128.075 431.819 124.183 431.452 118.647C431.085 113.112 429.815 111.397 429.289 110.939C429.262 110.915 429.241 110.885 429.227 110.852C429.213 110.82 429.206 110.784 429.206 110.749C429.206 110.713 429.213 110.678 429.227 110.645C429.241 110.612 429.262 110.583 429.289 110.558L429.515 110.327C430.244 109.751 431.17 109.483 432.094 109.58L451.8 111.676C452.1 111.707 452.402 111.635 452.655 111.471C452.908 111.307 453.097 111.061 453.19 110.775C453.272 110.525 453.34 110.255 453.403 109.98C453.589 109.144 453.45 108.269 453.013 107.532C452.576 106.795 451.875 106.251 451.051 106.011C447.782 105.047 440.877 103.848 426.908 103.795C425.677 103.787 424.462 104.068 423.359 104.614C421.563 105.505 419.612 107.345 420.36 111.074" fill="#73B295"/>
<path d="M357.907 110.24C357.907 110.24 360.322 110.486 364.001 113.545C364.555 114.006 365.196 114.353 365.886 114.564C366.576 114.775 367.301 114.846 368.019 114.774L409.825 110.438C411.234 110.29 412.536 109.617 413.47 108.554C414.141 107.793 414.996 106.753 415.972 105.413C418.98 101.275 429.878 100.451 429.878 100.451C429.878 100.451 391.249 104.016 387.459 104.459C383.668 104.903 358.12 106.666 357.907 110.24Z" fill="#33BCA2"/>
<path d="M361.278 157.915C361.379 160.835 361.529 162.612 361.529 162.612C363.127 170.667 411.906 169.169 411.906 169.169C424.89 168.947 432.553 167.863 436.831 165.797C438.23 165.122 439.403 164.057 440.208 162.731C441.012 161.405 441.414 159.874 441.365 158.325L441.225 153.83C438.906 155.568 436.095 156.53 433.195 156.581L415.112 156.903L411.959 156.961L376.99 157.607L373.745 157.669L361.278 157.915Z" fill="#319885"/>
<path d="M410.081 155.583C410.081 155.583 420.361 163.422 423.451 164.737C424.044 165.034 424.719 165.126 425.37 164.999C426.021 164.871 426.612 164.532 427.048 164.033C427.165 163.912 427.25 163.763 427.294 163.6C427.338 163.437 427.341 163.266 427.301 163.102C427.262 162.938 427.182 162.786 427.068 162.661C426.955 162.536 426.812 162.441 426.652 162.386C424.04 161.475 417.801 159.1 412.751 155.343" fill="#404041"/>
<path d="M395.778 155.868C401.23 155.54 408.463 155.55 411.201 155.569C411.891 155.564 412.57 155.399 413.186 155.087C415.991 153.729 419.352 153.642 420.911 153.642C420.988 153.652 421.066 153.637 421.133 153.6C421.201 153.563 421.255 153.505 421.287 153.435C421.319 153.365 421.328 153.287 421.313 153.211C421.298 153.136 421.258 153.067 421.201 153.016C420.395 152.317 418.574 151.469 414.851 152.558C409.646 154.09 399.579 153.04 393.026 154.687C392.94 154.701 392.862 154.745 392.807 154.813C392.752 154.88 392.724 154.965 392.728 155.052C392.733 155.138 392.769 155.221 392.83 155.282C392.891 155.344 392.973 155.381 393.06 155.386L395.233 155.795C395.411 155.842 395.594 155.866 395.778 155.868Z" fill="#404041"/>
<path d="M395.706 148.858C390.472 149.629 383.635 151.093 381.061 151.657C380.401 151.797 379.718 151.777 379.067 151.599C376.059 150.833 372.853 151.407 371.409 151.749C371.335 151.773 371.256 151.774 371.182 151.752C371.108 151.73 371.042 151.686 370.994 151.625C370.946 151.565 370.918 151.491 370.914 151.414C370.909 151.337 370.929 151.26 370.969 151.195C371.549 150.356 373.046 149.157 376.846 149.48C382.157 149.928 391.404 146.888 398.024 147.182C398.109 147.179 398.192 147.205 398.259 147.257C398.326 147.308 398.372 147.382 398.391 147.464C398.409 147.547 398.398 147.633 398.359 147.708C398.32 147.783 398.257 147.842 398.179 147.875L396.247 148.709C396.074 148.781 395.892 148.832 395.706 148.858Z" fill="#404041"/>
<path d="M359.37 187.958C359.786 188.536 360.35 188.994 361.002 189.282C362.257 189.809 363.34 190.673 364.131 191.778L369.303 189.099C369.303 189.099 367.989 188.107 367.502 185.149C367.091 182.658 360.857 180.505 359.423 180.943" fill="#C4DBE9"/>
<path d="M379.356 151.667C375.807 157.034 368.487 161.576 368.487 161.576C368.648 162.13 369.008 162.605 369.498 162.911C369.988 163.216 370.573 163.331 371.143 163.234C373.311 162.993 379.651 154.259 381.408 151.59" fill="#404041"/>
<path d="M436.764 201.052C439.665 201.076 442.547 200.586 445.277 199.606C445.394 199.557 445.487 199.464 445.536 199.347C445.585 199.229 445.586 199.098 445.538 198.98C445.513 198.921 445.478 198.868 445.433 198.823C445.388 198.779 445.334 198.743 445.275 198.719C445.217 198.695 445.154 198.682 445.09 198.683C445.027 198.683 444.964 198.695 444.905 198.72C444.808 198.758 435.214 202.622 425.552 197.212C422.744 195.629 420.196 193.624 418 191.267C414.958 188.208 412.761 185.997 405.151 186.204C405.023 186.207 404.901 186.261 404.813 186.354C404.725 186.446 404.677 186.57 404.68 186.698C404.683 186.825 404.737 186.947 404.83 187.035C404.923 187.123 405.047 187.171 405.175 187.167C412.375 186.965 414.349 188.95 417.314 191.946C419.571 194.376 422.19 196.443 425.079 198.074C428.651 200.056 432.677 201.081 436.764 201.052Z" fill="#404041"/>
<path d="M419.873 193.739C420.356 189.465 424.967 185.472 430.496 184.985C432.78 184.805 435.004 184.166 437.034 183.106C437.123 183.059 437.223 183.035 437.324 183.038C437.425 183.04 437.524 183.069 437.61 183.121C437.697 183.173 437.769 183.246 437.818 183.334C437.868 183.422 437.894 183.521 437.894 183.622C437.894 185.814 437.517 190.911 433.847 192.341C429.134 194.182 424.755 194.269 419.873 193.743" fill="#C4DBE9"/>
<path d="M424.552 191.595C424.789 189.538 427 187.62 429.656 187.384C430.756 187.299 431.828 186.991 432.804 186.479C432.847 186.455 432.895 186.443 432.944 186.444C432.993 186.445 433.041 186.458 433.083 186.483C433.124 186.508 433.159 186.543 433.183 186.585C433.207 186.628 433.22 186.676 433.22 186.724C433.22 187.779 433.036 190.231 431.288 190.92C429.019 191.802 426.914 191.84 424.567 191.595" fill="#404041"/>
<path d="M365.426 188.839C365.739 187.505 364.793 185.818 363.19 185.077C362.524 184.778 361.926 184.347 361.432 183.81C361.411 183.785 361.384 183.766 361.353 183.756C361.322 183.745 361.289 183.743 361.257 183.749C361.225 183.756 361.195 183.77 361.171 183.792C361.147 183.814 361.128 183.841 361.118 183.872C360.882 184.527 360.447 186.093 361.389 186.917C362.551 187.888 363.939 188.55 365.426 188.844" fill="#404041"/>
<path d="M440.018 168.095C440.017 167.949 439.978 167.806 439.907 167.679C439.835 167.552 439.732 167.445 439.607 167.368C439.483 167.292 439.341 167.248 439.195 167.241C439.049 167.234 438.904 167.264 438.772 167.329C436.875 168.268 433.19 169.993 431.138 170.287C427.329 170.826 425.783 173.909 419.873 174.555C418.191 174.727 416.589 175.358 415.242 176.377C413.894 177.397 412.854 178.766 412.234 180.336C412.234 180.336 416.512 187.683 425.667 182.605C425.667 182.605 428.053 182.008 430.544 179.093C433.036 176.179 432.172 175.36 435.373 174.82C438.328 174.324 440.076 173.505 440.018 168.095Z" fill="#DDE5E9"/>
<path d="M367.657 180.505C372.263 182.697 375.991 178.987 375.991 178.987C376.126 177.609 371.819 173.852 367.652 172.098C363.639 170.407 359.979 164.53 359.979 164.53C359.979 164.53 357.874 165.888 359.149 170.561C359.149 170.561 364.856 179.165 367.657 180.505Z" fill="#DDE5E9"/>
<path d="M429.733 174.468C429.736 174.397 429.72 174.326 429.688 174.262C429.656 174.198 429.607 174.143 429.548 174.102C429.489 174.062 429.42 174.037 429.349 174.03C429.277 174.024 429.205 174.035 429.139 174.064C428.173 174.478 426.343 175.234 425.329 175.331C423.451 175.504 422.621 176.973 419.709 177.152C418.884 177.199 418.088 177.471 417.407 177.938C416.726 178.406 416.186 179.05 415.846 179.801C415.846 179.801 417.777 183.506 422.374 181.247C423.337 180.963 424.196 180.405 424.847 179.642C426.136 178.274 425.73 177.855 427.309 177.667C428.734 177.46 429.612 177.099 429.733 174.468Z" fill="white"/>
<path d="M361.534 170.06C361.558 170.012 361.595 169.97 361.639 169.939C361.683 169.907 361.734 169.887 361.788 169.879C361.842 169.871 361.896 169.875 361.948 169.893C361.999 169.91 362.046 169.939 362.084 169.978C362.883 170.708 363.755 171.354 364.687 171.905C366.077 172.58 366.357 173.765 368.55 174.748C369.151 174.982 369.682 175.368 370.09 175.868C370.498 176.367 370.769 176.964 370.877 177.6C370.877 177.6 368.535 179.387 365.565 176.559C364.923 176.108 364.406 175.501 364.064 174.796C363.407 173.534 363.813 173.389 362.654 172.797C361.563 172.271 360.978 171.78 361.534 170.06Z" fill="white"/>
<path d="M393.248 184.002C398.571 184.018 403.891 183.733 409.182 183.15C409.927 183.015 410.629 182.708 411.234 182.253C411.838 181.799 412.328 181.21 412.664 180.534C412.696 180.475 412.716 180.411 412.723 180.344C412.729 180.277 412.721 180.21 412.7 180.147C412.679 180.083 412.644 180.025 412.599 179.976C412.554 179.926 412.499 179.887 412.438 179.859C412.377 179.832 412.311 179.818 412.244 179.818C412.177 179.817 412.11 179.831 412.049 179.858C411.987 179.885 411.932 179.924 411.887 179.973C411.841 180.022 411.807 180.08 411.785 180.143C411.512 180.677 411.12 181.14 410.638 181.497C410.157 181.853 409.599 182.094 409.008 182.201C407.024 182.557 386.56 184.161 379.264 181.622C378.232 181.26 377.372 180.529 376.85 179.57L376.41 178.761C376.379 178.705 376.336 178.656 376.286 178.617C376.235 178.578 376.177 178.549 376.115 178.532C376.053 178.515 375.989 178.51 375.925 178.518C375.861 178.526 375.8 178.546 375.744 178.578C375.688 178.609 375.639 178.652 375.6 178.702C375.56 178.753 375.531 178.81 375.514 178.872C375.497 178.934 375.493 178.998 375.501 179.062C375.509 179.125 375.529 179.187 375.561 179.243L376 180.052C376.636 181.223 377.689 182.115 378.95 182.552C382.185 183.655 387.753 184.002 393.248 184.002Z" fill="#404041"/>
<path d="M395.039 187.721C402.839 187.738 410.608 186.731 418.144 184.725C418.268 184.692 418.373 184.612 418.437 184.502C418.502 184.392 418.52 184.26 418.487 184.137C418.471 184.076 418.443 184.018 418.404 183.967C418.365 183.917 418.317 183.874 418.262 183.843C418.206 183.811 418.145 183.79 418.082 183.782C418.019 183.774 417.955 183.778 417.893 183.795C404.628 187.297 390.733 187.704 377.285 184.985C374.775 184.46 372.4 183.431 370.302 181.96C364.025 177.537 359.602 170.397 359.559 170.311C359.526 170.256 359.482 170.209 359.43 170.172C359.379 170.135 359.321 170.108 359.259 170.093C359.197 170.078 359.132 170.076 359.07 170.086C359.007 170.096 358.946 170.118 358.892 170.152C358.784 170.219 358.706 170.325 358.676 170.449C358.646 170.573 358.667 170.703 358.733 170.812C358.776 170.884 363.286 178.207 369.742 182.745C371.947 184.292 374.444 185.375 377.082 185.929C382.99 187.143 389.008 187.743 395.039 187.721Z" fill="#404041"/>
<path d="M362.408 192.428C363.974 192.387 365.512 192.009 366.919 191.32C368.326 190.632 369.567 189.649 370.558 188.439C372.765 185.713 377.121 185.924 377.159 185.924C377.223 185.928 377.286 185.92 377.346 185.899C377.406 185.878 377.462 185.846 377.509 185.804C377.557 185.762 377.595 185.711 377.623 185.654C377.651 185.597 377.667 185.535 377.671 185.472C377.675 185.408 377.666 185.345 377.645 185.285C377.625 185.225 377.592 185.17 377.55 185.123C377.508 185.075 377.457 185.036 377.4 185.009C377.343 184.981 377.281 184.965 377.217 184.961C377.019 184.961 372.331 184.715 369.805 187.852C367.676 190.487 363.528 192.409 359.747 190.993C359.688 190.97 359.624 190.96 359.561 190.963C359.497 190.965 359.435 190.98 359.377 191.006C359.319 191.032 359.267 191.07 359.224 191.116C359.18 191.163 359.146 191.217 359.124 191.277C359.102 191.336 359.092 191.4 359.094 191.463C359.096 191.526 359.111 191.589 359.138 191.646C359.164 191.704 359.202 191.756 359.248 191.799C359.295 191.842 359.35 191.876 359.409 191.898C360.369 192.254 361.384 192.433 362.408 192.428Z" fill="#404041"/>
<path d="M377.183 200.686C388.385 203.21 399.998 204.019 410.283 203.995C410.283 203.995 406.42 199.91 403.34 192.573C403.095 191.984 402.698 191.47 402.189 191.085C401.68 190.699 401.077 190.456 400.442 190.381C394.41 189.719 388.335 189.528 382.272 189.812C381.936 189.827 381.606 189.915 381.308 190.071C381.009 190.226 380.748 190.446 380.544 190.713C378.38 193.591 377.201 197.088 377.183 200.686Z" fill="#404041"/>
<path d="M374.639 198.498C373.818 198.103 372.976 197.75 372.118 197.443C371.268 197.135 370.418 196.846 369.559 196.581C368.699 196.316 367.84 196.065 366.976 195.825L364.363 195.092C365.071 195.688 365.864 196.175 366.715 196.538C367.544 196.915 368.397 197.237 369.269 197.501C370.138 197.771 371.022 197.993 371.915 198.166C372.812 198.352 373.723 198.463 374.639 198.498Z" fill="#404041"/>
<path d="M425.508 201.524C424.339 201.49 423.19 201.524 422.041 201.562C420.892 201.601 419.752 201.683 418.608 201.745C417.463 201.808 416.329 201.9 415.189 201.996C414.05 202.092 412.91 202.165 411.746 202.285C412.879 202.556 414.035 202.717 415.199 202.767C416.357 202.814 417.518 202.801 418.675 202.728C419.825 202.641 420.979 202.521 422.118 202.328C423.267 202.146 424.4 201.877 425.508 201.524Z" fill="#404041"/>
<path d="M401.283 180.885C398.154 180.885 395.064 181.001 391.978 181.015C390.433 181.015 388.893 181.015 387.353 180.972C385.807 180.933 384.265 180.796 382.736 180.563C384.192 181.168 385.727 181.559 387.295 181.724C388.072 181.839 388.854 181.873 389.637 181.936C390.419 181.998 391.206 181.984 391.988 181.974C393.55 181.96 395.11 181.863 396.662 181.685C398.219 181.522 399.763 181.255 401.283 180.885Z" fill="#404041"/>
<path d="M418.246 75.5732C415.441 75.5732 412.64 75.7467 409.849 75.9875C407.058 76.2284 404.267 76.5512 401.491 76.951C398.714 77.3509 395.952 77.8664 393.219 78.5264C390.47 79.1266 387.798 80.0399 385.257 81.2483C387.913 80.3935 390.627 79.7301 393.379 79.2635C396.121 78.7576 398.869 78.3 401.636 77.9001C404.402 77.5002 407.16 77.11 409.936 76.7294C412.713 76.3488 415.47 75.9683 418.246 75.5732Z" fill="#33BCA2"/>
<path d="M398.405 108.41C396.561 108.506 394.726 108.675 392.901 108.892C391.075 109.108 389.25 109.311 387.43 109.537C385.609 109.764 383.794 110.019 381.983 110.274C380.172 110.53 378.357 110.785 376.517 110.963C378.358 111.146 380.211 111.165 382.056 111.021C383.895 110.915 385.73 110.717 387.555 110.491C389.381 110.265 391.201 109.971 393.007 109.633C394.813 109.296 396.624 108.896 398.405 108.41Z" fill="#404041"/>
<path d="M436.639 170.132C435.36 170.785 434.025 171.32 432.65 171.732C432.521 171.747 432.4 171.8 432.301 171.884C432.203 171.968 432.131 172.079 432.097 172.204C432.062 172.328 432.065 172.461 432.106 172.583C432.147 172.706 432.224 172.814 432.327 172.893C432.732 173.221 433.216 173.435 433.732 173.514C435.209 173.717 437.788 171.867 437.884 170.995C437.906 170.833 437.889 170.668 437.836 170.513C437.785 170.408 437.712 170.314 437.623 170.237C437.534 170.161 437.431 170.103 437.319 170.067C437.207 170.032 437.089 170.019 436.972 170.03C436.855 170.042 436.742 170.076 436.639 170.132Z" fill="white"/>
<path d="M447.019 102.609C446.054 92.2661 447.729 80.2752 448.429 75.9249C448.465 75.7094 448.545 75.5038 448.666 75.3214C448.786 75.1391 448.944 74.9842 449.128 74.8669C449.313 74.7496 449.52 74.6725 449.737 74.6406C449.953 74.6087 450.174 74.6228 450.385 74.682C458.082 76.8258 469.217 81.3591 481.636 86.7548C481.636 86.7548 471.621 101.689 467.319 109.807C467.319 109.807 466.836 107.731 456.112 104.989L447.019 102.609Z" fill="#DDE5E9"/>
<path d="M465.909 130.85C463.186 120.285 468.429 105.697 471.592 99.4298C471.905 98.8127 472.184 98.1791 472.428 97.5317L473.19 95.5276C473.563 94.5237 474.026 93.5561 474.576 92.6371C477.15 88.3542 480.853 86.2056 485.431 86.2249C488.898 86.2249 490.854 87.7135 490.854 87.7135C490.854 87.7135 481.737 89.7658 479.569 94.7423C479.569 94.7423 471.988 117.703 469.603 122.357C468.187 125.104 466.953 127.941 465.909 130.85Z" fill="#319885"/>
<path d="M465.388 196.412C465.516 196.412 465.639 196.362 465.73 196.271C465.82 196.181 465.871 196.058 465.871 195.931L463.433 141.526C463.43 141.462 463.414 141.4 463.388 141.343C463.361 141.286 463.323 141.234 463.276 141.191C463.229 141.149 463.174 141.116 463.114 141.094C463.055 141.072 462.991 141.063 462.928 141.066C462.865 141.069 462.802 141.084 462.745 141.111C462.687 141.137 462.636 141.175 462.593 141.222C462.55 141.269 462.517 141.324 462.495 141.383C462.474 141.443 462.464 141.506 462.467 141.569L464.881 195.974C464.892 196.098 464.951 196.214 465.046 196.295C465.141 196.377 465.263 196.419 465.388 196.412Z" fill="#319885"/>
<path d="M460.013 77.8857L460.897 106.353L462.684 106.916L461.819 78.5601" fill="#319885"/>
<path d="M461.278 133.302C461.278 133.302 459.038 137.705 455.904 138.192C453.345 138.587 449.772 139.127 448.178 139.551C448.084 139.575 447.985 139.578 447.889 139.56C447.793 139.542 447.702 139.503 447.623 139.446C447.544 139.389 447.478 139.315 447.43 139.23C447.383 139.145 447.355 139.05 447.348 138.953C446.561 127.425 447.145 122.246 447.749 119.943C447.904 119.341 448.232 118.797 448.694 118.379C449.156 117.961 449.73 117.687 450.346 117.592C454.499 116.947 460.853 119.322 460.853 119.322" fill="#DDE5E9"/>
<path d="M458.28 141.425C454.972 141.765 451.702 142.41 448.512 143.352C448.345 143.404 448.2 143.509 448.098 143.65C447.996 143.792 447.943 143.963 447.947 144.137C448.039 149.041 448.01 153.844 447.715 158.623C451.7 153.186 455.233 147.434 458.28 141.425Z" fill="#DDE5E9"/>
<path d="M465.948 142.012C467.768 142.012 470.916 141.93 476.43 141.723C483.77 141.449 493.862 140.986 504.113 140.456C522.631 139.493 545.093 138.115 547.484 137.416C547.836 137.31 548.02 137.123 548.024 136.853C548.024 136.725 547.974 136.602 547.883 136.512C547.792 136.422 547.67 136.371 547.542 136.371C547.419 136.369 547.299 136.414 547.208 136.496C545.687 137.007 528.686 138.202 505.562 139.42C483.553 140.577 465.402 141.266 463.963 141.001C463.868 140.953 463.759 140.938 463.655 140.958C463.55 140.978 463.455 141.032 463.384 141.112C463.314 141.192 463.271 141.293 463.264 141.399C463.257 141.505 463.286 141.611 463.345 141.699C463.446 141.873 463.533 142.012 465.948 142.012Z" fill="#319885"/>
<path d="M538.676 178.501C538.741 178.499 538.805 178.486 538.865 178.462C538.974 178.416 539.062 178.332 539.112 178.225C539.163 178.119 539.173 177.997 539.14 177.884C538.918 176.627 537.72 148.685 537.276 137.985C537.27 137.857 537.214 137.737 537.119 137.651C537.025 137.564 536.9 137.519 536.772 137.525C536.643 137.531 536.523 137.587 536.436 137.681C536.35 137.776 536.305 137.9 536.31 138.028C536.924 152.789 537.986 177.638 538.242 178.212C538.279 178.296 538.34 178.369 538.417 178.42C538.494 178.471 538.584 178.499 538.676 178.501Z" fill="#319885"/>
<path d="M528.01 182.321H528.039C528.103 182.317 528.165 182.301 528.222 182.273C528.279 182.246 528.33 182.207 528.373 182.16C528.415 182.112 528.447 182.057 528.468 181.997C528.489 181.937 528.497 181.874 528.493 181.81L525.91 138.736C525.902 138.609 525.844 138.489 525.748 138.404C525.652 138.319 525.526 138.276 525.398 138.284C525.27 138.291 525.15 138.349 525.065 138.445C524.98 138.541 524.937 138.666 524.944 138.794L527.527 181.868C527.535 181.991 527.589 182.106 527.679 182.19C527.769 182.274 527.887 182.321 528.01 182.321Z" fill="#319885"/>
<path d="M537.653 158.647L526.634 159.606L525.427 138.765L536.794 138.009L537.653 158.647Z" fill="#319885"/>
<path d="M492.592 190.925C492.72 190.925 492.843 190.874 492.934 190.784C493.024 190.694 493.075 190.571 493.075 190.443L491.332 140.654C491.332 140.526 491.281 140.403 491.191 140.313C491.1 140.223 490.977 140.172 490.849 140.172C490.721 140.172 490.598 140.223 490.508 140.313C490.417 140.403 490.366 140.526 490.366 140.654L492.105 190.443C492.105 190.507 492.117 190.57 492.142 190.629C492.166 190.688 492.202 190.741 492.248 190.786C492.293 190.831 492.347 190.866 492.406 190.89C492.465 190.914 492.529 190.926 492.592 190.925Z" fill="#319885"/>
<path d="M527.107 167.791L491.974 172.826L492.592 190.443L528.01 181.839L527.107 167.791Z" fill="#319885"/>
<path d="M510.588 186.58C510.716 186.58 510.839 186.529 510.93 186.439C511.02 186.348 511.071 186.226 511.071 186.098L510.371 170.33C510.365 170.206 510.311 170.09 510.221 170.005C510.132 169.92 510.012 169.872 509.888 169.872C509.76 169.872 509.637 169.923 509.547 170.013C509.456 170.104 509.405 170.226 509.405 170.354L510.11 186.098C510.11 186.225 510.161 186.347 510.25 186.437C510.34 186.527 510.461 186.578 510.588 186.58Z" fill="#319885"/>
<path d="M473.089 194.495C473.217 194.495 473.34 194.444 473.431 194.354C473.521 194.263 473.572 194.141 473.572 194.013L471.641 141.425C471.636 141.297 471.581 141.176 471.487 141.089C471.394 141.002 471.269 140.955 471.141 140.96C471.013 140.964 470.892 141.019 470.805 141.113C470.717 141.206 470.671 141.331 470.675 141.458L472.607 194.052C472.616 194.173 472.671 194.286 472.761 194.368C472.85 194.45 472.968 194.495 473.089 194.495Z" fill="#319885"/>
<path d="M491.496 159.736L471.853 160.343L471.158 141.42L490.854 140.654L491.496 159.736Z" fill="#319885"/>
<path d="M520.512 164.746C516.943 165.257 513.433 165.936 509.913 166.529C508.155 166.847 506.398 167.117 504.635 167.367C502.878 167.652 501.103 167.813 499.324 167.849C501.103 168.202 502.924 168.301 504.732 168.143C506.532 168.031 508.325 167.817 510.101 167.502C511.873 167.184 513.636 166.823 515.379 166.365C517.117 165.916 518.83 165.375 520.512 164.746Z" fill="#319885"/>
<path d="M474.157 185.741C474.307 185.814 474.472 185.852 474.639 185.852C475.499 185.852 476.189 184.889 476.189 183.665C476.189 182.441 475.499 181.473 474.639 181.473C474.395 181.477 474.157 181.556 473.959 181.699" fill="#404041"/>
</g>
<g clip-path="url(#clip1_64_1387)">
<path d="M326.636 185.33C326.832 187.8 327.533 198.204 325.928 205.973C325.819 206.494 325.586 206.981 325.247 207.392C324.909 207.803 324.476 208.126 323.985 208.332C315.562 211.876 306.834 214.645 297.908 216.605C279.658 220.726 260.739 222.047 243.984 222.008C216.452 221.945 194.733 218.225 191.39 217.289C184.947 215.434 185.474 206.437 185.474 206.437L187.708 72.844C187.708 72.844 181.989 58.3507 244.346 73.945C306.702 89.5392 317.684 89.7594 317.684 89.7594C317.684 89.7594 327.91 130.652 323.442 154.472L326.423 158.168C326.841 158.689 327.076 159.333 327.092 160L327.485 172.905C327.501 173.313 327.409 173.717 327.218 174.077L326.518 175.367C326.393 175.609 326.359 175.889 326.422 176.154C326.486 176.42 326.642 176.654 326.864 176.814L328.005 177.6C328.17 177.715 328.302 177.874 328.385 178.058C328.468 178.242 328.5 178.445 328.477 178.646C328.289 180.629 327.734 182.56 326.84 184.339C326.675 184.642 326.604 184.987 326.636 185.33Z" fill="#319885"/>
<path d="M121.152 200.767C120.038 200.946 118.961 201.299 117.958 201.813C117.958 201.813 110.233 171.411 125.037 165.332C139.842 159.253 133.635 163.13 133.635 163.13L121.152 200.767Z" fill="#404041"/>
<path d="M155.126 209.245C155.071 211.478 152.766 212.776 151.476 213.625C150.446 214.299 149.245 214.664 148.014 214.679C143.774 214.734 131.7 214.757 126.83 213.46C120.868 211.887 120.868 195.962 120.868 195.962C120.703 172.221 128.915 166.936 128.915 166.936C128.915 166.936 156.447 160.598 155.126 209.245Z" fill="#1A1A1A"/>
<path d="M137.317 204.55C137.317 204.55 131.37 208.828 128.475 202.82C124.778 195.152 125.588 176.735 134.823 170.208C134.823 170.208 141.163 170.703 142.556 181.383C143.948 192.062 142.603 205.36 137.317 204.55Z" fill="#666666"/>
<path d="M49.6301 184.253C49.166 185.087 47.3567 187.029 47.2073 188.319C46.9778 190.395 45.9719 192.308 44.3911 193.674C43.9843 194.028 43.5062 194.29 42.9891 194.444C42.4721 194.597 41.9281 194.638 41.394 194.563C40.8845 194.488 40.3956 194.309 39.9574 194.039C39.5191 193.769 39.1407 193.412 38.8453 192.99C37.7063 191.383 37.1085 189.455 37.1384 187.485C37.1778 185.347 37.3538 183.215 37.6654 181.099C37.6654 181.099 31.9072 162.666 38.9869 160.504C46.0666 158.341 59.7383 166.292 49.6301 184.253Z" fill="#404041"/>
<path d="M41.7012 194.594C41.7012 194.594 48.5056 195.27 53.6737 195.947C53.9261 195.985 54.1841 195.961 54.4253 195.878C54.6665 195.794 54.8837 195.653 55.0582 195.467C56.2854 194.185 58.0553 191.535 57.4181 187.178L47.1053 183.301C47.1053 183.301 49.1349 192.746 41.7012 194.594Z" fill="#4D4D4D"/>
<path d="M147.346 69.9894L188.251 62.1962L186.229 163.13L154.638 110.324C154.638 110.324 143.625 71.7273 147.346 69.9894Z" fill="#319885"/>
<path d="M188.888 215.96L186.725 216.094C183.702 216.283 180.669 215.983 177.742 215.206L137.317 204.55C144.058 181.501 137.82 172.127 132.786 168.376C129.796 166.174 125.415 166.315 122.898 169.044C114.323 178.347 117.958 201.774 117.958 201.774L44.7455 184.017C45.4298 177.498 46.2558 170.916 46.1063 164.664C46.0665 163.791 45.6953 162.966 45.0684 162.356C44.4414 161.747 43.6059 161.4 42.7317 161.384C41.9295 161.401 41.1563 161.688 40.5379 162.199C39.9195 162.71 39.4923 163.415 39.3256 164.2C38.3301 169.845 37.8849 175.573 37.9961 181.304C31.8919 178.064 24.1435 173.802 19.8249 169.248C19.1993 168.584 18.715 167.8 18.4013 166.943C18.0876 166.086 17.951 165.174 17.9999 164.263L21.9331 79.3711C22.0474 76.8656 22.7221 74.4175 23.9075 72.207C25.6282 69.0008 28.341 66.4378 31.6401 64.9014C46.3187 58.0597 89.2847 38.5335 112.726 32.1558C112.726 32.1558 128.184 35.2385 131.11 43.6293C134.036 52.0202 155.102 118.408 186.292 157.57V208.112C186.292 208.112 183.98 214.12 188.888 215.96Z" fill="#33BCA2"/>
<path d="M145.529 83.8378L30.492 96.4202C29.9569 96.4829 29.4185 96.3337 28.9921 96.0044C28.5657 95.6752 28.2852 95.1921 28.2108 94.6587C27.3219 88.3124 28.6356 77.6882 29.2413 73.3787C29.3247 72.7974 29.5558 72.2471 29.9124 71.7804C30.2691 71.3137 30.7395 70.9461 31.2786 70.7129C98.4651 41.6555 127.122 38.7301 127.122 38.7301C127.122 38.7301 131.236 41.8757 131.976 45.9807C132.715 50.0857 145.529 83.8378 145.529 83.8378Z" fill="#DDE5E9"/>
<path d="M71.8369 47.1131C71.9848 45.7098 72.2479 44.321 72.6235 42.9609C73.0157 41.6259 73.709 40.3986 74.6499 39.3734C75.5909 38.3482 76.7545 37.5524 78.0513 37.0472L118.61 21.1856C120.15 20.5843 121.798 20.3108 123.449 20.3826C125.1 20.4543 126.718 20.8698 128.199 21.6023L128.655 21.8304L164.447 6.17322C171.175 3.22526 178.359 1.45628 185.686 0.943677L193.553 0.393198C226.67 -2.51647 289.089 11.5522 292.755 13.8091C295.192 15.4264 297.309 17.4792 299.001 19.8644C299.001 19.8644 257.05 5.33964 202.465 5.70925C202.465 5.70925 195.606 5.47333 194.505 13.8563L195.921 54.0963L188.054 55.5826C188.054 55.5826 187.858 11.3241 186.339 9.24803C184.821 7.17195 183.5 4.24655 175.798 6.99107C168.097 9.7356 123.558 29.7966 123.558 29.7966C123.558 29.7966 120.034 29.946 112.718 32.1558L71.8369 47.1131Z" fill="#319885"/>
<path d="M323.82 146.773C323.654 151.539 323.41 154.441 323.41 154.441C320.807 167.589 241.341 165.143 241.341 165.143C220.188 164.782 207.704 163.012 200.735 159.639C198.456 158.537 196.545 156.799 195.234 154.634C193.923 152.469 193.268 149.971 193.348 147.442L193.577 140.105L195.818 69.0536C195.818 69.0536 221.714 69.7849 268.236 78.9936C314.757 88.2023 317.652 89.6729 317.652 89.6729C324.118 108.987 324.244 134.277 323.82 146.773Z" fill="#DDE5E9"/>
<path d="M310.242 63.2264L195.913 54.0648L194.82 22.9549L194.497 13.8249C194.46 12.7606 194.639 11.6998 195.024 10.7068C195.409 9.71382 195.992 8.80936 196.737 8.04828C197.482 7.2872 198.374 6.68534 199.359 6.27922C200.343 5.87309 201.4 5.67115 202.466 5.68565C235.04 6.00021 266.624 9.94793 296.862 18.8499C298.84 19.4348 300.51 20.7735 301.511 22.5775C304.105 27.4679 306.066 32.6684 307.348 38.0538C309.369 46.2892 310.342 54.7471 310.242 63.2264Z" fill="#DDE5E9"/>
<path d="M188.007 55.5511C188.485 40.7222 188.086 25.878 186.812 11.0961C186.736 10.2193 186.466 9.37037 186.022 8.61083C185.577 7.85129 184.969 7.20019 184.242 6.70478C183.514 6.20936 182.685 5.88205 181.816 5.74658C180.946 5.61112 180.057 5.67089 179.213 5.92157C158.202 12.1341 123.566 29.8123 123.566 29.8123L151.099 68.2436C151.099 68.2436 153.765 64.8699 161.561 62.6051C169.356 60.3403 188.007 55.5511 188.007 55.5511Z" fill="#319885"/>
<path d="M211.599 71.861C205.306 68.857 165.526 76.2648 158.894 77.8612C158.643 77.9163 154.591 79.1902 158.163 77.9792C153.585 78.3724 147.976 73.2608 147.331 69.9894C147.134 68.9828 151.382 66.2461 152.326 65.8372C153.986 65.1216 156.133 64.3352 158.619 63.5252C166.485 60.9537 177.616 58.0755 186.788 55.8421C197.418 53.2525 208.401 52.4236 219.3 53.3885C249.342 56.0465 312.312 62.0389 327.439 66.6551C327.942 66.8102 328.388 67.1112 328.72 67.52C329.052 67.9289 329.255 68.427 329.303 68.9513C329.698 72.9944 329.769 77.0625 329.515 81.1169C329.417 82.6779 328.863 84.1759 327.922 85.4254C326.981 86.675 325.695 87.6213 324.221 88.1473C320.65 89.4213 314.963 90.5065 306.64 89.4999L244.551 82.4774C240.435 81.9693 236.551 80.2876 233.365 77.6332" fill="#319885"/>
<path d="M307.324 38.0538C280.649 25.8332 194.835 22.9471 194.835 22.9471L194.512 13.817C194.476 12.7547 194.656 11.6961 195.04 10.7051C195.425 9.7141 196.006 8.81133 196.75 8.05132C197.493 7.29131 198.383 6.68984 199.365 6.28323C200.347 5.87663 201.402 5.67335 202.465 5.68565C235.04 6.00021 266.623 9.94793 296.861 18.8499C298.84 19.4348 300.51 20.7735 301.51 22.5775C304.096 27.4691 306.05 32.6696 307.324 38.0538Z" fill="#73B295"/>
<path d="M329.657 77.4601L339.498 79.0801C339.75 79.1211 339.979 79.2504 340.145 79.4449C340.311 79.6393 340.402 79.8863 340.402 80.1418V81.1562C340.4 81.3737 340.465 81.5865 340.587 81.7663C340.71 81.9462 340.884 82.0845 341.087 82.1628C342.995 82.8742 344.99 83.3265 347.018 83.5075L351.124 79.7957C343.258 83.5469 344.682 95.5945 348.347 101.028C350.896 104.811 351.368 109.836 351.423 112.533C351.438 113.088 351.66 113.617 352.046 114.016C352.432 114.415 352.953 114.655 353.508 114.688C358.747 115.034 361.602 112.982 362.947 111.495C363.603 110.759 364.024 109.845 364.159 108.869C365.544 99.9819 365.261 90.9148 363.325 82.1314C362.863 80.1851 361.835 78.4191 360.371 77.0559C358.907 75.6928 357.071 74.7937 355.097 74.4718L329.429 70.2725" fill="#73B295"/>
<path d="M213.03 70.9016C212.862 70.9029 212.698 70.8504 212.562 70.7519C212.426 70.6534 212.325 70.5139 212.274 70.354C212.223 70.1941 212.225 70.022 212.279 69.863C212.333 69.704 212.436 69.5664 212.574 69.4704C212.707 69.376 215.862 67.1741 219.008 67.6066C219.217 67.6358 219.406 67.7466 219.532 67.9148C219.659 68.0829 219.714 68.2945 219.685 68.5031C219.656 68.7117 219.545 68.9001 219.377 69.0269C219.208 69.1537 218.997 69.2086 218.788 69.1794C216.279 68.8334 213.51 70.7522 213.478 70.7522C213.348 70.8468 213.191 70.8989 213.03 70.9016Z" fill="#404041"/>
<path d="M227.803 66.9539C227.803 66.9539 233.868 68.2514 233.121 80.1575C233.074 80.9439 233.027 81.7303 232.995 82.5167C232.854 86.0319 232.248 96.3337 229.77 103.694C229.584 104.238 229.266 104.728 228.845 105.119C228.423 105.51 227.912 105.791 227.355 105.936C224.015 106.831 220.512 106.925 217.129 106.211C215.95 105.976 214.84 105.473 213.886 104.743C212.931 104.012 212.157 103.072 211.622 101.996C209.671 98.0638 208.901 91.7097 209.498 82.674C210.096 73.6383 212.165 70.8387 213.022 70.0916C213.065 70.0519 213.099 70.0038 213.122 69.9503C213.146 69.8969 213.158 69.8393 213.158 69.781C213.158 69.7227 213.146 69.665 213.122 69.6116C213.099 69.5582 213.065 69.5101 213.022 69.4703L212.653 69.0929C211.466 68.1523 209.958 67.7147 208.452 67.874L176.35 71.2948C175.861 71.3459 175.369 71.2278 174.957 70.9602C174.544 70.6925 174.236 70.2916 174.084 69.8242C173.95 69.4153 173.84 68.9749 173.738 68.5267C173.434 67.1622 173.661 65.7333 174.372 64.5299C175.084 63.3265 176.227 62.4387 177.569 62.0468C182.894 60.474 194.143 58.5158 216.901 58.4293C218.906 58.4174 220.886 58.8753 222.682 59.7662C225.609 61.221 228.787 64.2251 227.567 70.3118" fill="#73B295"/>
<path d="M329.31 68.9513C329.31 68.9513 325.377 69.3524 319.383 74.346C318.48 75.0987 317.437 75.6638 316.313 76.0082C315.189 76.3525 314.008 76.4692 312.838 76.3513L244.731 69.2738C242.435 69.0319 240.315 67.934 238.792 66.1989C237.699 64.9564 236.307 63.2578 234.718 61.0716C229.817 54.3165 212.062 52.9717 212.062 52.9717C212.062 52.9717 274.993 58.7911 281.168 59.5146C287.343 60.238 328.964 63.1163 329.31 68.9513Z" fill="#33BCA2"/>
<path d="M323.82 146.773C323.654 151.539 323.41 154.441 323.41 154.441C320.807 167.589 241.341 165.143 241.341 165.143C220.188 164.782 207.704 163.012 200.735 159.639C198.456 158.537 196.545 156.799 195.234 154.634C193.923 152.469 193.268 149.971 193.348 147.442L193.577 140.105C197.355 142.941 201.933 144.513 206.658 144.595L236.118 145.122L241.254 145.216L298.222 146.27L303.509 146.372L323.82 146.773Z" fill="#319885"/>
<path d="M244.315 142.967C244.315 142.967 227.567 155.762 222.533 157.909C221.567 158.394 220.467 158.544 219.406 158.336C218.345 158.128 217.384 157.574 216.672 156.76C216.482 156.562 216.344 156.318 216.272 156.053C216.2 155.787 216.196 155.507 216.26 155.24C216.324 154.972 216.455 154.725 216.64 154.52C216.824 154.316 217.057 154.162 217.317 154.071C221.573 152.585 231.736 148.708 239.965 142.574" fill="#404041"/>
<path d="M267.614 143.431C258.733 142.896 246.95 142.912 242.489 142.943C241.365 142.935 240.259 142.666 239.256 142.157C234.686 139.939 229.211 139.798 226.67 139.798C226.545 139.814 226.419 139.79 226.309 139.729C226.199 139.669 226.111 139.574 226.058 139.46C226.006 139.346 225.991 139.218 226.016 139.095C226.041 138.972 226.105 138.86 226.198 138.776C227.512 137.635 230.477 136.251 236.542 138.028C245.022 140.529 261.424 138.815 272.098 141.504C272.238 141.526 272.365 141.599 272.455 141.709C272.544 141.819 272.59 141.958 272.583 142.099C272.576 142.241 272.517 142.375 272.418 142.475C272.318 142.576 272.185 142.636 272.043 142.645L268.503 143.313C268.213 143.389 267.915 143.429 267.614 143.431Z" fill="#404041"/>
<path d="M267.733 131.989C276.26 133.247 287.399 135.638 291.592 136.558C292.667 136.786 293.78 136.754 294.84 136.464C299.741 135.213 304.964 136.149 307.316 136.707C307.436 136.747 307.565 136.749 307.686 136.713C307.806 136.677 307.913 136.605 307.991 136.506C308.07 136.407 308.115 136.287 308.123 136.161C308.13 136.035 308.098 135.91 308.032 135.803C307.088 134.435 304.65 132.477 298.459 133.003C289.806 133.735 274.742 128.773 263.957 129.252C263.819 129.247 263.684 129.291 263.575 129.375C263.466 129.459 263.39 129.579 263.36 129.714C263.33 129.848 263.348 129.989 263.411 130.112C263.474 130.234 263.578 130.331 263.705 130.385L266.852 131.745C267.134 131.864 267.43 131.946 267.733 131.989Z" fill="#404041"/>
<path d="M326.927 195.813C326.249 196.758 325.331 197.504 324.268 197.976C322.225 198.836 320.461 200.246 319.171 202.049L310.746 197.677C310.746 197.677 312.886 196.057 313.68 191.228C314.349 187.163 324.504 183.647 326.841 184.363" fill="#C4DBE9"/>
<path d="M294.368 136.574C300.149 145.334 312.075 152.75 312.075 152.75C311.812 153.653 311.226 154.429 310.428 154.927C309.63 155.426 308.676 155.614 307.748 155.455C304.216 155.062 293.888 140.804 291.024 136.448" fill="#404041"/>
<path d="M200.845 217.187C196.12 217.227 191.424 216.428 186.977 214.828C186.786 214.748 186.634 214.596 186.554 214.404C186.475 214.213 186.474 213.998 186.552 213.806C186.592 213.71 186.65 213.623 186.723 213.55C186.797 213.477 186.884 213.419 186.979 213.379C187.075 213.34 187.178 213.32 187.281 213.32C187.385 213.32 187.487 213.341 187.583 213.381C187.74 213.444 203.371 219.751 219.111 210.92C223.686 208.336 227.836 205.062 231.414 201.216C236.37 196.222 239.949 192.612 252.346 192.95C252.555 192.956 252.753 193.044 252.897 193.195C253.041 193.346 253.119 193.548 253.113 193.757C253.108 193.965 253.02 194.163 252.869 194.307C252.718 194.451 252.516 194.528 252.307 194.523C240.578 194.193 237.361 197.433 232.531 202.324C228.855 206.29 224.589 209.664 219.882 212.327C214.062 215.561 207.504 217.236 200.845 217.187Z" fill="#404041"/>
<path d="M228.362 205.25C227.575 198.274 220.063 191.755 211.056 190.961C207.335 190.667 203.712 189.624 200.405 187.894C200.26 187.816 200.097 187.778 199.933 187.782C199.768 187.786 199.607 187.833 199.466 187.918C199.325 188.003 199.209 188.122 199.128 188.266C199.047 188.409 199.005 188.571 199.005 188.735C199.005 192.314 199.618 200.634 205.597 202.969C213.274 205.973 220.409 206.115 228.362 205.258" fill="#C4DBE9"/>
<path d="M220.739 201.75C220.354 198.392 216.751 195.262 212.425 194.877C210.632 194.738 208.887 194.235 207.296 193.399C207.226 193.36 207.148 193.341 207.068 193.342C206.989 193.343 206.911 193.365 206.843 193.406C206.774 193.446 206.718 193.504 206.679 193.573C206.639 193.642 206.619 193.72 206.619 193.8C206.619 195.522 206.918 199.525 209.766 200.649C213.463 202.088 216.893 202.151 220.716 201.75" fill="#404041"/>
<path d="M317.062 197.252C316.551 195.074 318.093 192.321 320.704 191.11C321.79 190.623 322.764 189.919 323.568 189.042C323.602 189.002 323.647 188.971 323.697 188.954C323.747 188.937 323.801 188.933 323.853 188.944C323.905 188.954 323.954 188.978 323.994 189.013C324.033 189.049 324.063 189.094 324.079 189.144C324.465 190.214 325.173 192.77 323.639 194.114C321.746 195.699 319.484 196.781 317.062 197.26" fill="#404041"/>
<path d="M195.543 163.39C195.545 163.152 195.608 162.918 195.725 162.711C195.842 162.503 196.01 162.329 196.213 162.204C196.415 162.079 196.646 162.008 196.884 161.996C197.122 161.985 197.359 162.034 197.573 162.139C200.664 163.673 206.666 166.488 210.009 166.968C216.216 167.849 218.733 172.882 228.362 173.935C231.102 174.217 233.712 175.246 235.907 176.91C238.102 178.574 239.797 180.81 240.806 183.372C240.806 183.372 233.837 195.365 218.922 187.076C218.922 187.076 215.036 186.101 210.977 181.343C206.918 176.586 208.326 175.249 203.111 174.368C198.297 173.558 195.449 172.221 195.543 163.39Z" fill="#DDE5E9"/>
<path d="M313.428 183.647C305.924 187.226 299.851 181.17 299.851 181.17C299.63 178.921 306.647 172.787 313.436 169.925C319.973 167.165 325.936 157.57 325.936 157.57C325.936 157.57 329.365 159.788 327.289 167.416C327.289 167.416 317.991 181.461 313.428 183.647Z" fill="#DDE5E9"/>
<path d="M212.298 173.794C212.294 173.677 212.319 173.561 212.372 173.456C212.425 173.352 212.503 173.263 212.6 173.197C212.696 173.131 212.808 173.09 212.925 173.079C213.041 173.068 213.159 173.087 213.266 173.133C214.839 173.81 217.821 175.044 219.472 175.201C222.532 175.485 223.885 177.883 228.629 178.174C229.973 178.252 231.27 178.696 232.379 179.458C233.489 180.221 234.368 181.273 234.922 182.499C234.922 182.499 231.775 188.547 224.287 184.858C222.718 184.395 221.319 183.485 220.259 182.24C218.159 180.006 218.82 179.322 216.247 179.016C213.927 178.677 212.495 178.088 212.298 173.794Z" fill="white"/>
<path d="M323.403 166.598C323.362 166.52 323.304 166.452 323.232 166.4C323.16 166.349 323.076 166.315 322.989 166.302C322.901 166.289 322.812 166.297 322.728 166.325C322.644 166.353 322.568 166.401 322.506 166.465C321.205 167.656 319.784 168.71 318.266 169.61C316.001 170.711 315.545 172.646 311.973 174.25C310.993 174.632 310.128 175.262 309.463 176.078C308.799 176.894 308.357 177.868 308.182 178.905C308.182 178.905 311.997 181.823 316.835 177.207C317.881 176.471 318.723 175.48 319.281 174.329C320.351 172.268 319.69 172.032 321.578 171.065C323.356 170.208 324.308 169.406 323.403 166.598Z" fill="white"/>
<path d="M271.737 189.357C263.064 189.382 254.398 188.917 245.778 187.965C244.565 187.744 243.42 187.243 242.435 186.502C241.451 185.761 240.653 184.799 240.106 183.695C240.053 183.599 240.02 183.494 240.01 183.385C240 183.276 240.013 183.167 240.047 183.063C240.082 182.96 240.138 182.865 240.211 182.784C240.284 182.703 240.374 182.638 240.474 182.594C240.573 182.55 240.681 182.526 240.79 182.526C240.9 182.526 241.008 182.548 241.108 182.591C241.208 182.635 241.298 182.699 241.372 182.779C241.446 182.86 241.502 182.954 241.538 183.058C241.982 183.928 242.621 184.684 243.406 185.266C244.19 185.849 245.099 186.242 246.061 186.416C249.294 186.997 282.631 189.616 294.517 185.472C296.198 184.881 297.6 183.687 298.451 182.122L299.166 180.801C299.218 180.71 299.287 180.63 299.37 180.566C299.452 180.502 299.547 180.454 299.647 180.426C299.748 180.399 299.853 180.391 299.957 180.404C300.061 180.417 300.161 180.45 300.252 180.502C300.343 180.553 300.423 180.622 300.487 180.705C300.551 180.787 300.599 180.882 300.626 180.983C300.654 181.083 300.662 181.189 300.649 181.292C300.636 181.396 300.603 181.496 300.551 181.587L299.835 182.908C298.799 184.821 297.084 186.277 295.029 186.99C289.758 188.79 280.688 189.357 271.737 189.357Z" fill="#404041"/>
<path d="M268.818 195.428C256.111 195.455 243.456 193.811 231.178 190.536C230.977 190.483 230.805 190.352 230.701 190.172C230.596 189.992 230.567 189.778 230.619 189.577C230.646 189.476 230.692 189.382 230.755 189.3C230.818 189.217 230.897 189.148 230.987 189.096C231.077 189.044 231.176 189.011 231.279 188.997C231.382 188.984 231.487 188.991 231.587 189.019C253.197 194.735 275.834 195.399 297.743 190.961C301.831 190.104 305.701 188.424 309.118 186.022C319.344 178.803 326.549 167.149 326.62 167.007C326.674 166.919 326.745 166.842 326.829 166.781C326.913 166.72 327.008 166.676 327.109 166.652C327.21 166.628 327.315 166.624 327.417 166.64C327.519 166.657 327.618 166.693 327.706 166.748C327.883 166.857 328.009 167.031 328.058 167.233C328.106 167.435 328.073 167.648 327.965 167.825C327.895 167.943 320.547 179.896 310.03 187.304C306.438 189.829 302.37 191.597 298.073 192.502C288.449 194.483 278.645 195.463 268.818 195.428Z" fill="#404041"/>
<path d="M321.979 203.111C319.428 203.043 316.921 202.426 314.63 201.302C312.338 200.179 310.316 198.575 308.701 196.599C305.106 192.148 298.01 192.494 297.948 192.494C297.844 192.501 297.741 192.486 297.643 192.453C297.545 192.419 297.455 192.366 297.377 192.297C297.3 192.229 297.237 192.146 297.192 192.053C297.146 191.959 297.12 191.858 297.114 191.755C297.108 191.652 297.122 191.548 297.156 191.451C297.189 191.353 297.242 191.263 297.311 191.185C297.379 191.108 297.463 191.045 297.556 191C297.649 190.954 297.75 190.928 297.853 190.922C298.176 190.922 305.814 190.521 309.928 195.64C313.397 199.942 320.154 203.079 326.314 200.767C326.411 200.731 326.514 200.714 326.617 200.718C326.721 200.722 326.823 200.746 326.917 200.789C327.011 200.832 327.096 200.893 327.167 200.969C327.237 201.045 327.292 201.134 327.328 201.231C327.364 201.328 327.381 201.432 327.377 201.535C327.374 201.639 327.35 201.74 327.306 201.835C327.263 201.929 327.202 202.014 327.126 202.084C327.05 202.155 326.961 202.21 326.864 202.246C325.301 202.826 323.646 203.119 321.979 203.111Z" fill="#404041"/>
<path d="M297.908 216.59C279.658 220.71 260.74 222.031 243.984 221.992C243.984 221.992 250.277 215.323 255.296 203.347C255.694 202.385 256.341 201.546 257.171 200.918C258 200.289 258.982 199.892 260.016 199.769C269.844 198.688 279.741 198.377 289.617 198.841C290.166 198.864 290.702 199.008 291.189 199.262C291.676 199.517 292.1 199.875 292.433 200.311C295.959 205.009 297.878 210.717 297.908 216.59Z" fill="#404041"/>
<path d="M302.054 213.019C303.391 212.373 304.762 211.798 306.16 211.297C307.544 210.794 308.929 210.322 310.329 209.889C311.729 209.457 313.13 209.048 314.538 208.655L318.793 207.46C317.64 208.431 316.349 209.226 314.962 209.819C313.612 210.435 312.222 210.961 310.801 211.392C309.385 211.832 307.946 212.194 306.49 212.477C305.029 212.781 303.545 212.962 302.054 213.019Z" fill="#404041"/>
<path d="M219.182 217.958C221.085 217.903 222.957 217.958 224.83 218.021C226.702 218.084 228.558 218.217 230.423 218.32C232.287 218.422 234.136 218.571 235.992 218.729C237.848 218.886 239.705 219.004 241.601 219.2C239.755 219.642 237.872 219.906 235.976 219.987C234.089 220.064 232.198 220.043 230.313 219.924C228.44 219.782 226.56 219.586 224.704 219.271C222.833 218.973 220.987 218.534 219.182 217.958Z" fill="#404041"/>
<path d="M258.647 184.269C263.745 184.269 268.779 184.457 273.806 184.481C276.323 184.481 278.832 184.481 281.342 184.41C283.86 184.347 286.372 184.124 288.862 183.742C286.492 184.73 283.99 185.368 281.436 185.637C280.17 185.826 278.895 185.881 277.621 185.983C276.347 186.085 275.065 186.062 273.79 186.046C271.245 186.023 268.704 185.865 266.176 185.574C263.64 185.308 261.125 184.872 258.647 184.269Z" fill="#404041"/>
<path d="M231.013 12.3622C235.583 12.3622 240.146 12.6453 244.692 13.0385C249.239 13.4317 253.786 13.9586 258.309 14.6113C262.832 15.264 267.332 16.1054 271.784 17.1828C276.264 18.1625 280.616 19.6533 284.756 21.6259C280.428 20.2305 276.007 19.1477 271.524 18.386C267.056 17.5603 262.58 16.8132 258.073 16.1605C253.565 15.5078 249.074 14.8708 244.551 14.2495C240.028 13.6283 235.536 13.007 231.013 12.3622Z" fill="#33BCA2"/>
<path d="M263.335 65.963C266.34 66.1203 269.329 66.3955 272.303 66.7494C275.276 67.1033 278.25 67.4336 281.215 67.8032C284.181 68.1728 287.139 68.5896 290.088 69.0064C293.038 69.4232 295.996 69.84 298.993 70.1309C295.994 70.4297 292.975 70.4612 289.97 70.2253C286.973 70.0523 283.984 69.7299 281.011 69.3602C278.037 68.9906 275.072 68.5109 272.13 67.9605C269.188 67.41 266.238 66.7573 263.335 65.963Z" fill="#404041"/>
<path d="M201.049 166.716C203.132 167.782 205.306 168.655 207.547 169.327C207.757 169.351 207.955 169.438 208.115 169.575C208.276 169.712 208.392 169.894 208.448 170.097C208.505 170.301 208.5 170.517 208.433 170.717C208.366 170.917 208.241 171.093 208.074 171.222C207.414 171.757 206.624 172.107 205.785 172.237C203.378 172.567 199.177 169.547 199.02 168.124C198.985 167.859 199.012 167.59 199.099 167.338C199.182 167.166 199.3 167.013 199.445 166.887C199.59 166.762 199.759 166.668 199.941 166.61C200.123 166.552 200.316 166.531 200.506 166.55C200.697 166.568 200.881 166.625 201.049 166.716Z" fill="white"/>
<path d="M184.137 56.4948C185.71 39.6108 182.981 20.0374 181.84 12.9362C181.782 12.5845 181.651 12.2488 181.455 11.9512C181.259 11.6536 181.002 11.4007 180.701 11.2092C180.4 11.0177 180.063 10.8918 179.71 10.8398C179.357 10.7878 178.997 10.8108 178.654 10.9073C166.115 14.4068 147.975 21.8068 127.743 30.6145C127.743 30.6145 144.058 54.9928 151.067 68.2436C151.067 68.2436 151.853 64.8542 169.325 60.3796L184.137 56.4948Z" fill="#DDE5E9"/>
<path d="M153.364 102.593C157.801 85.3477 149.258 61.5356 144.105 51.3046C143.596 50.2972 143.142 49.2629 142.745 48.2062L141.502 44.9348C140.895 43.296 140.14 41.7166 139.244 40.2164C135.051 33.2253 129.018 29.718 121.56 29.7494C115.912 29.7494 112.727 32.1794 112.727 32.1794C112.727 32.1794 127.578 35.5294 131.11 43.6529C131.11 43.6529 143.46 81.1326 147.346 88.7292C149.653 93.2141 151.664 97.8454 153.364 102.593Z" fill="#319885"/>
<path d="M154.213 209.614C154.005 209.614 153.805 209.531 153.657 209.384C153.51 209.236 153.427 209.036 153.427 208.828L157.399 120.02C157.404 119.917 157.429 119.815 157.473 119.722C157.517 119.628 157.578 119.544 157.655 119.474C157.731 119.405 157.82 119.351 157.918 119.315C158.015 119.28 158.118 119.264 158.221 119.269C158.325 119.274 158.426 119.299 158.52 119.342C158.613 119.386 158.697 119.448 158.767 119.524C158.837 119.601 158.891 119.69 158.926 119.787C158.961 119.884 158.977 119.988 158.973 120.091L155.039 208.899C155.021 209.102 154.925 209.29 154.771 209.423C154.617 209.557 154.417 209.625 154.213 209.614Z" fill="#319885"/>
<path d="M162.968 16.1369L161.529 62.6051L158.618 63.5252L160.026 17.2378" fill="#319885"/>
<path d="M160.908 106.596C160.908 106.596 164.558 113.784 169.663 114.578C173.833 115.223 179.654 116.104 182.25 116.796C182.404 116.835 182.565 116.841 182.721 116.811C182.877 116.782 183.025 116.718 183.155 116.625C183.284 116.532 183.391 116.412 183.468 116.273C183.546 116.134 183.591 115.979 183.603 115.821C184.885 97.0021 183.933 88.5484 182.95 84.7894C182.697 83.806 182.161 82.9183 181.409 82.2362C180.657 81.5541 179.721 81.1075 178.718 80.9518C171.953 79.898 161.6 83.7749 161.6 83.7749" fill="#DDE5E9"/>
<path d="M165.793 119.855C171.183 120.41 176.51 121.463 181.707 123C181.978 123.086 182.215 123.257 182.381 123.488C182.547 123.719 182.633 123.998 182.627 124.282C182.477 132.288 182.525 140.128 183.005 147.929C176.514 139.054 170.757 129.665 165.793 119.855Z" fill="#DDE5E9"/>
<path d="M153.301 120.814C150.335 120.814 145.206 120.681 136.223 120.342C124.266 119.894 107.826 119.139 91.1254 118.274C60.958 116.701 24.3637 114.452 20.4699 113.312C19.8957 113.139 19.5967 112.832 19.5889 112.392C19.5889 112.183 19.6717 111.983 19.8193 111.836C19.9668 111.688 20.1669 111.606 20.3755 111.606C20.5759 111.602 20.77 111.675 20.9183 111.81C23.3962 112.644 51.0936 114.594 88.7655 116.583C124.62 118.471 154.19 119.595 156.534 119.163C156.689 119.085 156.866 119.06 157.037 119.093C157.207 119.126 157.362 119.215 157.477 119.345C157.592 119.475 157.661 119.64 157.672 119.813C157.684 119.986 157.638 120.159 157.541 120.303C157.376 120.586 157.234 120.814 153.301 120.814Z" fill="#319885"/>
<path d="M34.8177 180.376C34.7125 180.374 34.6085 180.353 34.5109 180.313C34.3336 180.238 34.19 180.1 34.1073 179.926C34.0247 179.753 34.0088 179.554 34.0625 179.369C34.4244 177.317 36.3753 131.706 37.099 114.24C37.1083 114.031 37.2002 113.835 37.3544 113.694C37.5085 113.553 37.7124 113.48 37.921 113.489C38.1296 113.498 38.326 113.59 38.4669 113.744C38.6077 113.898 38.6816 114.102 38.6722 114.311C37.6732 138.406 35.9426 178.968 35.5257 179.904C35.4654 180.042 35.3666 180.16 35.241 180.244C35.1155 180.328 34.9686 180.373 34.8177 180.376Z" fill="#319885"/>
<path d="M52.1954 186.612H52.1482C52.0448 186.606 51.9436 186.58 51.8505 186.535C51.7573 186.489 51.674 186.426 51.6053 186.349C51.5366 186.271 51.4839 186.181 51.4501 186.083C51.4164 185.985 51.4023 185.882 51.4087 185.779L55.6172 115.467C55.6297 115.258 55.7246 115.063 55.881 114.924C56.0374 114.786 56.2424 114.715 56.451 114.728C56.6597 114.74 56.8548 114.835 56.9935 114.991C57.1321 115.148 57.203 115.353 57.1905 115.561L52.982 185.873C52.97 186.073 52.8818 186.261 52.7355 186.399C52.5893 186.536 52.3961 186.612 52.1954 186.612Z" fill="#319885"/>
<path d="M36.4854 147.969L54.4363 149.533L56.4029 115.514L37.8856 114.279L36.4854 147.969Z" fill="#319885"/>
<path d="M109.894 200.657C109.685 200.657 109.485 200.574 109.338 200.427C109.19 200.279 109.107 200.079 109.107 199.871L111.947 118.597C111.947 118.388 112.03 118.188 112.178 118.041C112.325 117.893 112.525 117.81 112.734 117.81C112.942 117.81 113.143 117.893 113.29 118.041C113.438 118.188 113.52 118.388 113.52 118.597L110.689 199.871C110.689 199.975 110.668 200.078 110.628 200.174C110.588 200.269 110.529 200.357 110.455 200.43C110.381 200.503 110.294 200.561 110.198 200.6C110.101 200.639 109.998 200.658 109.894 200.657Z" fill="#319885"/>
<path d="M53.6663 162.894L110.902 171.112L109.895 199.871L52.1953 185.826L53.6663 162.894Z" fill="#319885"/>
<path d="M80.5767 193.564C80.368 193.564 80.168 193.481 80.0204 193.334C79.8729 193.186 79.79 192.986 79.79 192.777L80.9307 167.039C80.9408 166.837 81.0281 166.647 81.1745 166.508C81.321 166.369 81.5153 166.291 81.7173 166.292C81.9259 166.292 82.126 166.374 82.2735 166.522C82.421 166.669 82.5039 166.869 82.5039 167.078L81.3554 192.777C81.3554 192.985 81.2737 193.184 81.1278 193.331C80.982 193.478 80.7839 193.562 80.5767 193.564Z" fill="#319885"/>
<path d="M141.667 206.484C141.458 206.484 141.258 206.402 141.11 206.254C140.963 206.107 140.88 205.907 140.88 205.698L144.026 119.855C144.034 119.646 144.124 119.449 144.276 119.307C144.429 119.165 144.632 119.089 144.841 119.096C145.049 119.103 145.246 119.193 145.389 119.346C145.531 119.498 145.607 119.701 145.6 119.91L142.453 205.761C142.437 205.958 142.347 206.143 142.202 206.277C142.056 206.411 141.865 206.485 141.667 206.484Z" fill="#319885"/>
<path d="M111.68 149.746L143.68 150.737L144.813 119.847L112.726 118.597L111.68 149.746Z" fill="#319885"/>
<path d="M64.4111 157.924C70.2244 158.758 75.9432 159.867 81.6777 160.834C84.5411 161.353 87.4044 161.793 90.2757 162.202C93.1379 162.668 96.0294 162.93 98.9286 162.989C96.0294 163.565 93.063 163.726 90.1183 163.468C87.1851 163.286 84.2646 162.936 81.371 162.423C78.484 161.904 75.6128 161.314 72.7731 160.567C69.9414 159.833 67.1503 158.951 64.4111 157.924Z" fill="#319885"/>
<path d="M139.928 192.196C139.683 192.315 139.414 192.376 139.141 192.376C137.741 192.376 136.616 190.804 136.616 188.806C136.616 186.809 137.741 185.228 139.141 185.228C139.54 185.234 139.928 185.363 140.25 185.598" fill="#404041"/>
</g>
<defs>
<clipPath id="clip0_64_1387">
<rect width="213" height="136" fill="white" transform="matrix(-1 0 0 1 549 68)"/>
</clipPath>
<clipPath id="clip1_64_1387">
<rect width="347" height="222" fill="white" transform="translate(18)"/>
</clipPath>
</defs>
</svg>
