<svg width="50" height="50" viewBox="0 0 50 50" fill="none" xmlns="http://www.w3.org/2000/svg">
<g clip-path="url(#clip0_75_2069)">
<path d="M18.2285 12.4283V10.4167C18.2285 6.10196 14.7307 2.60419 10.416 2.60419C6.10129 2.60419 2.60352 6.10196 2.60352 10.4167V12.1573C2.60352 15.423 3.32105 18.6487 4.70536 21.6064L6.02929 24.4351C6.19182 24.7824 6.61842 24.9137 6.9481 24.718L13.4196 20.8759C16.4009 19.1059 18.2285 15.8955 18.2285 12.4283Z" fill="white"/>
<path d="M37.5731 31.7717L39.5854 31.7721C43.8993 31.7728 47.396 35.2701 47.396 39.5839C47.396 43.8983 43.8985 47.3958 39.5841 47.3958H37.8422C34.5755 47.3958 31.3487 46.6779 28.3902 45.2928L26.115 44.2276C25.4731 43.9271 25.2304 43.1385 25.5922 42.529L29.1237 36.5807C30.8941 33.5988 34.1053 31.7712 37.5731 31.7717Z" fill="white"/>
<path fill-rule="evenodd" clip-rule="evenodd" d="M6.64802 22.2613C7.40949 21.8553 8.35591 22.1435 8.7619 22.905C12.9375 30.7368 19.3599 37.1421 27.205 41.2968C27.9676 41.7006 28.2584 42.6463 27.8545 43.4089C27.4507 44.1715 26.5051 44.4623 25.7425 44.0584C17.3466 39.612 10.4731 32.7569 6.00434 24.3752C5.59836 23.6137 5.88654 22.6673 6.64802 22.2613Z" fill="white"/>
</g>
<defs>
<clipPath id="clip0_75_2069">
<rect width="50" height="50" fill="white"/>
</clipPath>
</defs>
</svg>
