<svg width="30" height="20" viewBox="0 0 30 20" fill="none" xmlns="http://www.w3.org/2000/svg">
<path d="M1 19H29V1H1V19Z" stroke="#7B7B7B" stroke-width="1.5" stroke-linecap="round" stroke-linejoin="round"/>
<path d="M6.12869 2.12499C6.12869 1.80357 6.08248 1.42857 5.99007 1H1V6.94642C1.27723 6.94642 1.60064 6.94642 1.97027 6.94642C4.1881 6.94642 6.12869 4.85713 6.12869 2.12499Z" stroke="#7B7B7B" stroke-width="1.5" stroke-linecap="round" stroke-linejoin="round"/>
<path d="M6.12869 18.0357C6.12869 18.3572 6.08248 18.6786 5.99007 19H1V13.2143C1.27723 13.1072 1.60064 13.0536 1.97027 13.0536C4.1881 13.0536 6.12869 15.3036 6.12869 18.0357Z" stroke="#7B7B7B" stroke-width="1.5" stroke-linecap="round" stroke-linejoin="round"/>
<path d="M23.8721 18.0357C23.8721 18.3571 23.8721 18.6785 23.8721 19H29.0008V13.2143C28.7235 13.1071 28.4001 13.0535 28.0305 13.0535C25.6741 13.0535 23.8721 15.3035 23.8721 18.0357Z" stroke="#7B7B7B" stroke-width="1.5" stroke-linecap="round" stroke-linejoin="round"/>
<path d="M23.8721 2.12499C23.8721 1.80357 23.8721 1.42857 23.8721 1H29.0008V6.94642C28.7235 6.94642 28.4001 6.94642 28.0305 6.94642C25.6741 6.94642 23.8721 4.85713 23.8721 2.12499Z" stroke="#7B7B7B" stroke-width="1.5" stroke-linecap="round" stroke-linejoin="round"/>
<path d="M9.846 13V6.7H12.438C12.996 6.7 13.473 6.79 13.869 6.97C14.271 7.15 14.58 7.408 14.796 7.744C15.012 8.08 15.12 8.479 15.12 8.941C15.12 9.403 15.012 9.802 14.796 10.138C14.58 10.468 14.271 10.723 13.869 10.903C13.473 11.077 12.996 11.164 12.438 11.164H10.494L11.016 10.633V13H9.846ZM13.968 13L12.375 10.714H13.626L15.228 13H13.968ZM11.016 10.759L10.494 10.201H12.384C12.9 10.201 13.287 10.09 13.545 9.868C13.809 9.646 13.941 9.337 13.941 8.941C13.941 8.539 13.809 8.23 13.545 8.014C13.287 7.798 12.9 7.69 12.384 7.69H10.494L11.016 7.114V10.759ZM18.985 13.063C18.595 13.063 18.238 12.973 17.914 12.793C17.596 12.613 17.341 12.343 17.149 11.983C16.963 11.617 16.87 11.155 16.87 10.597C16.87 10.033 16.96 9.571 17.14 9.211C17.326 8.851 17.578 8.584 17.896 8.41C18.214 8.23 18.577 8.14 18.985 8.14C19.459 8.14 19.876 8.242 20.236 8.446C20.602 8.65 20.89 8.935 21.1 9.301C21.316 9.667 21.424 10.099 21.424 10.597C21.424 11.095 21.316 11.53 21.1 11.902C20.89 12.268 20.602 12.553 20.236 12.757C19.876 12.961 19.459 13.063 18.985 13.063ZM16.321 14.746V8.194H17.392V9.328L17.356 10.606L17.446 11.884V14.746H16.321ZM18.859 12.1C19.129 12.1 19.369 12.04 19.579 11.92C19.795 11.8 19.966 11.626 20.092 11.398C20.218 11.17 20.281 10.903 20.281 10.597C20.281 10.285 20.218 10.018 20.092 9.796C19.966 9.568 19.795 9.394 19.579 9.274C19.369 9.154 19.129 9.094 18.859 9.094C18.589 9.094 18.346 9.154 18.13 9.274C17.914 9.394 17.743 9.568 17.617 9.796C17.491 10.018 17.428 10.285 17.428 10.597C17.428 10.903 17.491 11.17 17.617 11.398C17.743 11.626 17.914 11.8 18.13 11.92C18.346 12.04 18.589 12.1 18.859 12.1Z" fill="#7B7B7B"/>
</svg>
