<svg width="13" height="9" viewBox="0 0 13 9" fill="none" xmlns="http://www.w3.org/2000/svg">
<path d="M0.846 7V0.7H3.438C3.996 0.7 4.473 0.79 4.869 0.97C5.271 1.15 5.58 1.408 5.796 1.744C6.012 2.08 6.12 2.479 6.12 2.941C6.12 3.403 6.012 3.802 5.796 4.138C5.58 4.468 5.271 4.723 4.869 4.903C4.473 5.077 3.996 5.164 3.438 5.164H1.494L2.016 4.633V7H0.846ZM4.968 7L3.375 4.714H4.626L6.228 7H4.968ZM2.016 4.759L1.494 4.201H3.384C3.9 4.201 4.287 4.09 4.545 3.868C4.809 3.646 4.941 3.337 4.941 2.941C4.941 2.539 4.809 2.23 4.545 2.014C4.287 1.798 3.9 1.69 3.384 1.69H1.494L2.016 1.114V4.759ZM9.98501 7.063C9.59501 7.063 9.23801 6.973 8.91401 6.793C8.59601 6.613 8.34101 6.343 8.14901 5.983C7.96301 5.617 7.87001 5.155 7.87001 4.597C7.87001 4.033 7.96001 3.571 8.14001 3.211C8.32601 2.851 8.57801 2.584 8.89601 2.41C9.21401 2.23 9.57701 2.14 9.98501 2.14C10.459 2.14 10.876 2.242 11.236 2.446C11.602 2.65 11.89 2.935 12.1 3.301C12.316 3.667 12.424 4.099 12.424 4.597C12.424 5.095 12.316 5.53 12.1 5.902C11.89 6.268 11.602 6.553 11.236 6.757C10.876 6.961 10.459 7.063 9.98501 7.063ZM7.32101 8.746V2.194H8.39201V3.328L8.35601 4.606L8.44601 5.884V8.746H7.32101ZM9.85901 6.1C10.129 6.1 10.369 6.04 10.579 5.92C10.795 5.8 10.966 5.626 11.092 5.398C11.218 5.17 11.281 4.903 11.281 4.597C11.281 4.285 11.218 4.018 11.092 3.796C10.966 3.568 10.795 3.394 10.579 3.274C10.369 3.154 10.129 3.094 9.85901 3.094C9.58901 3.094 9.34601 3.154 9.13001 3.274C8.91401 3.394 8.74301 3.568 8.61701 3.796C8.49101 4.018 8.42801 4.285 8.42801 4.597C8.42801 4.903 8.49101 5.17 8.61701 5.398C8.74301 5.626 8.91401 5.8 9.13001 5.92C9.34601 6.04 9.58901 6.1 9.85901 6.1Z" fill="#7B7B7B"/>
</svg>
