<svg width="375" height="120" viewBox="0 0 375 120" fill="none" xmlns="http://www.w3.org/2000/svg">
<g clip-path="url(#clip0_292_2014)">
<rect width="375" height="120" fill="#FAF9FB"/>
<path d="M145.591 54L151.831 40H155.031L161.291 54H157.891L152.771 41.64H154.051L148.911 54H145.591ZM148.711 51L149.571 48.54H156.771L157.651 51H148.711ZM162.524 54V43.24H165.504V46.28L165.084 45.4C165.404 44.64 165.917 44.0667 166.624 43.68C167.331 43.28 168.191 43.08 169.204 43.08V45.96C169.071 45.9467 168.951 45.94 168.844 45.94C168.737 45.9267 168.624 45.92 168.504 45.92C167.651 45.92 166.957 46.1667 166.424 46.66C165.904 47.14 165.644 47.8933 165.644 48.92V54H162.524ZM184.859 43.08C185.712 43.08 186.465 43.2533 187.119 43.6C187.785 43.9333 188.305 44.4533 188.679 45.16C189.065 45.8533 189.259 46.7467 189.259 47.84V54H186.139V48.32C186.139 47.4533 185.959 46.8133 185.599 46.4C185.239 45.9867 184.732 45.78 184.079 45.78C183.625 45.78 183.219 45.8867 182.859 46.1C182.499 46.3 182.219 46.6067 182.019 47.02C181.819 47.4333 181.719 47.96 181.719 48.6V54H178.599V48.32C178.599 47.4533 178.419 46.8133 178.059 46.4C177.712 45.9867 177.212 45.78 176.559 45.78C176.105 45.78 175.699 45.8867 175.339 46.1C174.979 46.3 174.699 46.6067 174.499 47.02C174.299 47.4333 174.199 47.96 174.199 48.6V54H171.079V43.24H174.059V46.18L173.499 45.32C173.872 44.5867 174.399 44.0333 175.079 43.66C175.772 43.2733 176.559 43.08 177.439 43.08C178.425 43.08 179.285 43.3333 180.019 43.84C180.765 44.3333 181.259 45.0933 181.499 46.12L180.399 45.82C180.759 44.98 181.332 44.3133 182.119 43.82C182.919 43.3267 183.832 43.08 184.859 43.08ZM198.655 54V51.9L198.455 51.44V47.68C198.455 47.0133 198.249 46.4933 197.835 46.12C197.435 45.7467 196.815 45.56 195.975 45.56C195.402 45.56 194.835 45.6533 194.275 45.84C193.729 46.0133 193.262 46.2533 192.875 46.56L191.755 44.38C192.342 43.9667 193.049 43.6467 193.875 43.42C194.702 43.1933 195.542 43.08 196.395 43.08C198.035 43.08 199.309 43.4667 200.215 44.24C201.122 45.0133 201.575 46.22 201.575 47.86V54H198.655ZM195.375 54.16C194.535 54.16 193.815 54.02 193.215 53.74C192.615 53.4467 192.155 53.0533 191.835 52.56C191.515 52.0667 191.355 51.5133 191.355 50.9C191.355 50.26 191.509 49.7 191.815 49.22C192.135 48.74 192.635 48.3667 193.315 48.1C193.995 47.82 194.882 47.68 195.975 47.68H198.835V49.5H196.315C195.582 49.5 195.075 49.62 194.795 49.86C194.529 50.1 194.395 50.4 194.395 50.76C194.395 51.16 194.549 51.48 194.855 51.72C195.175 51.9467 195.609 52.06 196.155 52.06C196.675 52.06 197.142 51.94 197.555 51.7C197.969 51.4467 198.269 51.08 198.455 50.6L198.935 52.04C198.709 52.7333 198.295 53.26 197.695 53.62C197.095 53.98 196.322 54.16 195.375 54.16ZM209.097 54.16C208.084 54.16 207.17 53.9333 206.357 53.48C205.544 53.0133 204.897 52.3667 204.417 51.54C203.95 50.7133 203.717 49.74 203.717 48.62C203.717 47.4867 203.95 46.5067 204.417 45.68C204.897 44.8533 205.544 44.2133 206.357 43.76C207.17 43.3067 208.084 43.08 209.097 43.08C210.004 43.08 210.797 43.28 211.477 43.68C212.157 44.08 212.684 44.6867 213.057 45.5C213.43 46.3133 213.617 47.3533 213.617 48.62C213.617 49.8733 213.437 50.9133 213.077 51.74C212.717 52.5533 212.197 53.16 211.517 53.56C210.85 53.96 210.044 54.16 209.097 54.16ZM209.637 51.6C210.144 51.6 210.604 51.48 211.017 51.24C211.43 51 211.757 50.66 211.997 50.22C212.25 49.7667 212.377 49.2333 212.377 48.62C212.377 47.9933 212.25 47.46 211.997 47.02C211.757 46.58 211.43 46.24 211.017 46C210.604 45.76 210.144 45.64 209.637 45.64C209.117 45.64 208.65 45.76 208.237 46C207.824 46.24 207.49 46.58 207.237 47.02C206.997 47.46 206.877 47.9933 206.877 48.62C206.877 49.2333 206.997 49.7667 207.237 50.22C207.49 50.66 207.824 51 208.237 51.24C208.65 51.48 209.117 51.6 209.637 51.6ZM212.457 54V51.8L212.517 48.6L212.317 45.42V39.16H215.437V54H212.457ZM224.925 54V51.9L224.725 51.44V47.68C224.725 47.0133 224.518 46.4933 224.105 46.12C223.705 45.7467 223.085 45.56 222.245 45.56C221.671 45.56 221.105 45.6533 220.545 45.84C219.998 46.0133 219.531 46.2533 219.145 46.56L218.025 44.38C218.611 43.9667 219.318 43.6467 220.145 43.42C220.971 43.1933 221.811 43.08 222.665 43.08C224.305 43.08 225.578 43.4667 226.485 44.24C227.391 45.0133 227.845 46.22 227.845 47.86V54H224.925ZM221.645 54.16C220.805 54.16 220.085 54.02 219.485 53.74C218.885 53.4467 218.425 53.0533 218.105 52.56C217.785 52.0667 217.625 51.5133 217.625 50.9C217.625 50.26 217.778 49.7 218.085 49.22C218.405 48.74 218.905 48.3667 219.585 48.1C220.265 47.82 221.151 47.68 222.245 47.68H225.105V49.5H222.585C221.851 49.5 221.345 49.62 221.065 49.86C220.798 50.1 220.665 50.4 220.665 50.76C220.665 51.16 220.818 51.48 221.125 51.72C221.445 51.9467 221.878 52.06 222.425 52.06C222.945 52.06 223.411 51.94 223.825 51.7C224.238 51.4467 224.538 51.08 224.725 50.6L225.205 52.04C224.978 52.7333 224.565 53.26 223.965 53.62C223.365 53.98 222.591 54.16 221.645 54.16Z" fill="#3092D9"/>
<g opacity="0.2" clip-path="url(#clip1_292_2014)">
<path d="M114.304 112.341C114.304 111.788 114.085 111.259 113.695 110.867C113.306 110.476 112.777 110.256 112.224 110.255V109.521C112.223 108.968 112.003 108.439 111.613 108.048C111.222 107.657 110.692 107.436 110.14 107.435H109.809V105.354C109.809 105.045 109.686 104.749 109.468 104.531C109.25 104.312 108.955 104.19 108.646 104.19H106.755C106.446 104.19 106.15 104.312 105.931 104.53C105.713 104.749 105.589 105.045 105.588 105.354H102.955C102.722 105.337 102.505 105.233 102.346 105.062C102.187 104.891 102.099 104.667 102.099 104.433C102.099 104.2 102.187 103.976 102.346 103.805C102.505 103.634 102.722 103.53 102.955 103.513H105.588V102.042C105.588 101.54 105.389 101.059 105.034 100.704C104.679 100.349 104.198 100.15 103.697 100.15C103.819 99.8284 103.862 99.482 103.821 99.1404C103.78 98.7989 103.657 98.4723 103.462 98.1889C103.268 97.9055 103.007 97.6737 102.703 97.5134C102.399 97.3531 102.06 97.2692 101.716 97.2688H98.7477L99.4048 96.4693C100.407 95.2421 100.954 93.7064 100.955 92.1217C100.955 91.0812 100.543 90.0832 99.8078 89.3469C99.073 88.6107 98.0763 88.1965 97.0365 88.1952L98.8422 83.3509C98.9174 83.1383 98.9408 82.9108 98.9106 82.6874C98.8803 82.4639 98.7973 82.2508 98.6684 82.0658C98.5395 81.8809 98.3684 81.7293 98.1693 81.6237C97.9701 81.5181 97.7487 81.4615 97.5234 81.4586C97.5242 81.0541 97.4223 80.656 97.2273 80.3016C97.0322 79.9472 96.7505 79.6482 96.4085 79.4326C96.0664 79.217 95.6753 79.0919 95.2717 79.0689C94.8681 79.046 94.4653 79.126 94.101 79.3014L93.0564 79.8076V77.7734C93.7908 77.2394 94.388 76.5385 94.7989 75.7284C95.2098 74.9183 95.4226 74.0221 95.4199 73.1136V72.2999L91.3783 74.566V72.8109L91.5201 72.6642C92.1938 71.9914 92.7281 71.192 93.0924 70.312C93.4566 69.432 93.6435 68.4886 93.6425 67.5361L91.3783 69.8068V69.0688C91.377 68.1588 91.0149 67.2864 90.3714 66.6433C89.728 66.0002 88.8558 65.639 87.9464 65.639V64.2908L88.9533 63.3115H86.9301L83.9285 60V114.659H77.1263L77.5564 114.228C78.6846 113.099 79.3187 111.568 79.3196 109.971L77.2539 112.038V110.505L77.9062 109.488C78.7406 108.194 79.1837 106.686 79.1825 105.145L76.819 107.511V103.996L74.8006 106.361V104.942C74.7993 104.666 74.6893 104.402 74.4946 104.207C74.2998 104.013 74.036 103.903 73.7606 103.901V101.205C73.7606 101.068 73.7335 100.932 73.681 100.805C73.6284 100.679 73.5514 100.564 73.4543 100.467C73.3573 100.37 73.2421 100.294 73.1154 100.242C72.9886 100.19 72.8529 100.163 72.7159 100.164H72.3519C72.3519 98.9036 72.065 97.6599 71.5129 96.5271C70.9609 95.3942 70.1583 94.4022 69.1659 93.6261L68.126 92.8077V119.957H122.014V114.659H114.304V112.341Z" fill="#737885"/>
<path d="M49.6339 100.211H49.2699C49.1329 100.211 48.9972 100.237 48.8705 100.289C48.7437 100.341 48.6285 100.418 48.5315 100.514C48.4344 100.611 48.3574 100.726 48.3048 100.853C48.2523 100.979 48.2252 101.115 48.2252 101.252V103.949C47.9498 103.95 47.686 104.06 47.4912 104.255C47.2965 104.45 47.1865 104.714 47.1853 104.989V106.409L45.1668 104.043V107.534L42.8033 105.169C42.8045 106.709 43.2474 108.216 44.0796 109.512L44.7319 110.529V112.038L42.6662 109.971C42.6671 111.568 43.3012 113.099 44.4294 114.228L44.8596 114.659H38.0715V60L35.0699 63.3115H33.0514L34.0346 64.2908V65.639C33.1253 65.639 32.2531 66.0002 31.6096 66.6433C30.9662 67.2864 30.6041 68.1588 30.6028 69.0688V69.8068L28.3386 67.5361C28.3375 68.4886 28.5245 69.432 28.8887 70.312C29.2529 71.192 29.7873 71.9914 30.461 72.6642L30.6028 72.8108V74.5849L26.5565 72.2999V73.0947C26.5562 74.0058 26.7731 74.9038 27.189 75.7142C27.605 76.5246 28.2082 77.2241 28.9484 77.7545V79.7792L27.8895 79.292C27.5253 79.1165 27.1225 79.0365 26.7189 79.0595C26.3153 79.0824 25.9241 79.2076 25.5821 79.4232C25.24 79.6388 24.9583 79.9378 24.7633 80.2921C24.5683 80.6465 24.4664 81.0446 24.4671 81.4492C24.2422 81.4528 24.0214 81.5099 23.8228 81.6158C23.6243 81.7217 23.4538 81.8734 23.3255 82.0583C23.1971 82.2431 23.1145 82.4559 23.0845 82.679C23.0545 82.9022 23.078 83.1292 23.153 83.3415L24.954 88.1858C23.9143 88.187 22.9175 88.6013 22.1828 89.3375C21.448 90.0737 21.0353 91.0717 21.0353 92.1123C21.0363 93.6969 21.584 95.2326 22.5858 96.4598L23.2428 97.2593H20.2695C19.9258 97.2597 19.5873 97.3437 19.2831 97.504C18.979 97.6642 18.7183 97.896 18.5234 98.1794C18.3286 98.4629 18.2055 98.7894 18.1646 99.131C18.1238 99.4725 18.1664 99.8189 18.2889 100.14C17.7874 100.14 17.3065 100.34 16.9519 100.695C16.5973 101.049 16.3981 101.531 16.3981 102.033V103.523H19.031C19.2635 103.54 19.481 103.644 19.6398 103.814C19.7986 103.985 19.8868 104.21 19.8868 104.443C19.8868 104.676 19.7986 104.901 19.6398 105.071C19.481 105.242 19.2635 105.346 19.031 105.363H16.3934C16.3934 105.054 16.2708 104.758 16.0528 104.54C15.8347 104.322 15.5389 104.199 15.2305 104.199H13.3397C13.0313 104.199 12.7355 104.322 12.5174 104.54C12.2994 104.758 12.1768 105.054 12.1768 105.363V107.445H11.8459C11.2939 107.446 10.7649 107.666 10.375 108.057C9.98503 108.448 9.76605 108.978 9.76605 109.531V110.264C9.21318 110.264 8.68294 110.484 8.292 110.875C7.90106 111.266 7.68143 111.797 7.68143 112.35V114.668H0V120.009H53.8882V92.8503L52.8482 93.6687C51.8501 94.4423 51.0416 95.4339 50.4846 96.5678C49.9275 97.7016 49.6365 98.9478 49.6339 100.211Z" fill="#737885"/>
</g>
<g opacity="0.2" clip-path="url(#clip2_292_2014)">
<path d="M183.541 119.522H180.526V118.76H179.366V119.522H175.586V117.376H174.936V116.606H173.762V117.152H173.202V117.83H172.176V119.525H171.335L170.245 118.432H169.099V113.986H167.864V118.399H167.303L166.956 118.054H166.415V115.838H166.003V118.037H165.518V116.636H164.933V118.318H164.35V117.533H163.265V118.452H162.486C162.862 117.023 163.7 115.252 165.569 114.849C166.353 114.675 167.063 114.26 167.6 113.663C168.252 112.943 168.614 112.007 168.615 111.035V110.416H156.089L154.786 82.1933C154.786 82.1933 155.647 81.7561 156.437 81.4479V80.4756L155.663 80.1814V79.663L156.725 78.7915L154.543 78.0014C154.543 78.0014 154.949 77.1607 154.01 76.9954C154.048 76.9379 154.071 76.8717 154.077 76.8031C154.082 76.7344 154.071 76.6654 154.043 76.6024C154.015 76.5394 153.972 76.4844 153.917 76.4424C153.862 76.4004 153.798 76.3728 153.73 76.3621C153.73 76.3621 154.047 75.8746 153.562 75.6504L153.091 74L152.651 75.6504C152.166 75.8746 152.483 76.3621 152.483 76.3621C152.414 76.3708 152.348 76.3969 152.291 76.4381C152.235 76.4792 152.19 76.534 152.161 76.5973C152.131 76.6606 152.118 76.7304 152.123 76.8C152.128 76.8697 152.151 76.9369 152.189 76.9954C151.25 77.1635 151.656 78.0014 151.656 78.0014L149.465 78.7915L150.527 79.663V80.1814L149.748 80.4756V81.4479C150.538 81.7561 151.399 82.1933 151.399 82.1933L150.099 110.407H137.573V111.027C137.574 111.998 137.936 112.935 138.588 113.655C139.125 114.252 139.835 114.666 140.619 114.84C142.992 115.356 143.701 118.107 143.909 119.522H142.698V118.76H141.538V119.522H137.758V117.376H137.108V116.606H135.934V117.152H135.374V117.83H134.351V119.525H133.51L132.406 118.43H131.263V113.986H130.027V118.399H129.467L129.119 118.054H128.581V115.838H128.175V118.037H127.69V116.636H127.105V118.318H126.522V117.533H125.446V118.452H124.647L124 119.094V120.358H143.996H162.189H183.541V119.522Z" fill="#737885"/>
</g>
<g opacity="0.2" clip-path="url(#clip3_292_2014)">
<path d="M63.4551 44.06L62.2407 46.9935L61.7248 46.8855C61.8082 46.0789 61.6462 45.2649 61.2595 44.5484C61.2503 44.5298 61.2394 44.5122 61.2288 44.4939L59.2773 45.3668L59.0271 45.0986L60.8303 43.9252C60.0673 43.0221 58.9444 42.3612 58.9444 42.3612L59.4968 41.8328L62.6542 42.3134L65.5576 40.1354C65.897 39.8812 66.2492 39.6441 66.6128 39.4252C67.1122 39.1246 67.9018 38.6557 68.8012 38.1377C67.2057 36.0281 62.135 34.1766 62.135 34.1766L62.9742 33.4716L66.4834 34.43L67.278 33.8008L67.9669 34.147L67.4184 34.7569L68.7429 35.2942L69.6932 34.8114L70.3017 35.197L69.7766 35.6416L72.023 36.3776C72.8852 35.9382 73.6781 35.5727 74.261 35.3749C75.7009 34.8831 76.5332 34.9137 76.9636 35.0123C77.0233 35.026 77.0796 35.0516 77.1291 35.0875C77.1786 35.1234 77.2203 35.1689 77.2517 35.2212C77.2831 35.2735 77.3034 35.3315 77.3115 35.3917C77.3197 35.4519 77.3154 35.5131 77.299 35.5715C76.9762 36.6723 75.2765 38.0177 73.3261 39.253C73.326 40.1674 73.0618 41.5957 73.0618 41.5957L73.9662 41.3319L73.9381 42.2804L72.7334 42.8794L72.4988 44.126L73.6078 44.0483L73.6285 44.6378L72.4074 45.1768L71.8488 47.8222L70.4282 48.4895C71.0641 44.9671 70.6243 41.8604 70.4602 40.9221C68.8621 41.7872 67.4646 42.4566 66.8963 42.7388C65.2275 43.5621 63.4551 44.06 63.4551 44.06Z" fill="#7B7B7B"/>
</g>
<g opacity="0.2" clip-path="url(#clip4_292_2014)">
<path d="M260.237 112.341C260.237 111.788 260.456 111.259 260.846 110.867C261.235 110.476 261.764 110.256 262.317 110.255V109.521C262.318 108.968 262.538 108.439 262.928 108.048C263.319 107.657 263.849 107.436 264.401 107.435H264.732V105.354C264.732 105.045 264.855 104.749 265.073 104.531C265.291 104.312 265.586 104.19 265.895 104.19H267.786C268.095 104.19 268.391 104.312 268.61 104.53C268.828 104.749 268.952 105.045 268.953 105.354H271.586C271.819 105.337 272.036 105.233 272.195 105.062C272.354 104.891 272.442 104.667 272.442 104.433C272.442 104.2 272.354 103.976 272.195 103.805C272.036 103.634 271.819 103.53 271.586 103.513H268.953V102.042C268.953 101.54 269.153 101.059 269.507 100.704C269.862 100.349 270.343 100.15 270.844 100.15C270.722 99.8284 270.679 99.482 270.72 99.1404C270.761 98.7989 270.884 98.4723 271.079 98.1889C271.273 97.9055 271.534 97.6737 271.838 97.5134C272.142 97.3531 272.481 97.2692 272.825 97.2688H275.793L275.136 96.4693C274.134 95.2421 273.587 93.7064 273.586 92.1217C273.586 91.0812 273.999 90.0832 274.733 89.3469C275.468 88.6107 276.465 88.1965 277.504 88.1952L275.699 83.3509C275.624 83.1383 275.6 82.9108 275.63 82.6874C275.661 82.4639 275.744 82.2508 275.873 82.0658C276.002 81.8809 276.173 81.7293 276.372 81.6237C276.571 81.5181 276.792 81.4615 277.018 81.4586C277.017 81.0541 277.119 80.656 277.314 80.3016C277.509 79.9472 277.791 79.6482 278.133 79.4326C278.475 79.217 278.866 79.0919 279.269 79.0689C279.673 79.046 280.076 79.126 280.44 79.3014L281.485 79.8076V77.7734C280.75 77.2394 280.153 76.5385 279.742 75.7284C279.331 74.9183 279.118 74.0221 279.121 73.1136V72.2999L283.163 74.566V72.8109L283.021 72.6642C282.347 71.9914 281.813 71.192 281.449 70.312C281.084 69.432 280.897 68.4886 280.899 67.5361L283.163 69.8068V69.0688C283.164 68.1588 283.526 67.2864 284.17 66.6433C284.813 66.0002 285.685 65.639 286.595 65.639V64.2908L285.588 63.3115H287.611L290.613 60V114.659H297.415L296.985 114.228C295.856 113.099 295.222 111.568 295.221 109.971L297.287 112.038V110.505L296.635 109.488C295.8 108.194 295.357 106.686 295.359 105.145L297.722 107.511V103.996L299.74 106.361V104.942C299.742 104.666 299.852 104.402 300.046 104.207C300.241 104.013 300.505 103.903 300.78 103.901V101.205C300.78 101.068 300.807 100.932 300.86 100.805C300.913 100.679 300.99 100.564 301.087 100.467C301.184 100.37 301.299 100.294 301.426 100.242C301.552 100.19 301.688 100.163 301.825 100.164H302.189C302.189 98.9036 302.476 97.6599 303.028 96.5271C303.58 95.3942 304.383 94.4022 305.375 93.6261L306.415 92.8077V119.957H252.527V114.659H260.237V112.341Z" fill="#737885"/>
<path d="M324.907 100.211H325.271C325.408 100.211 325.544 100.237 325.671 100.289C325.797 100.341 325.912 100.418 326.01 100.514C326.107 100.611 326.184 100.726 326.236 100.853C326.289 100.979 326.316 101.115 326.316 101.252V103.949C326.591 103.95 326.855 104.06 327.05 104.255C327.245 104.45 327.355 104.714 327.356 104.989V106.409L329.374 104.043V107.534L331.738 105.169C331.737 106.709 331.294 108.216 330.461 109.512L329.809 110.529V112.038L331.875 109.971C331.874 111.568 331.24 113.099 330.112 114.228L329.681 114.659H336.469V60L339.471 63.3115H341.49L340.506 64.2908V65.639C341.416 65.639 342.288 66.0002 342.931 66.6433C343.575 67.2864 343.937 68.1588 343.938 69.0688V69.8068L346.202 67.5361C346.203 68.4886 346.017 69.432 345.652 70.312C345.288 71.192 344.754 71.9914 344.08 72.6642L343.938 72.8108V74.5849L347.985 72.2999V73.0947C347.985 74.0058 347.768 74.9038 347.352 75.7142C346.936 76.5246 346.333 77.2241 345.593 77.7545V79.7792L346.652 79.292C347.016 79.1165 347.419 79.0365 347.822 79.0595C348.226 79.0824 348.617 79.2076 348.959 79.4232C349.301 79.6388 349.583 79.9378 349.778 80.2921C349.973 80.6465 350.075 81.0446 350.074 81.4492C350.299 81.4528 350.52 81.5099 350.718 81.6158C350.917 81.7217 351.087 81.8734 351.216 82.0583C351.344 82.2431 351.427 82.4559 351.457 82.679C351.487 82.9022 351.463 83.1292 351.388 83.3415L349.587 88.1858C350.627 88.187 351.623 88.6013 352.358 89.3375C353.093 90.0737 353.506 91.0717 353.506 92.1123C353.505 93.6969 352.957 95.2326 351.955 96.4598L351.298 97.2593H354.271C354.615 97.2597 354.954 97.3437 355.258 97.504C355.562 97.6642 355.823 97.896 356.018 98.1794C356.212 98.4629 356.336 98.7894 356.376 99.131C356.417 99.4725 356.375 99.8189 356.252 100.14C356.754 100.14 357.235 100.34 357.589 100.695C357.944 101.049 358.143 101.531 358.143 102.033V103.523H355.51C355.278 103.54 355.06 103.644 354.901 103.814C354.742 103.985 354.654 104.21 354.654 104.443C354.654 104.676 354.742 104.901 354.901 105.071C355.06 105.242 355.278 105.346 355.51 105.363H358.148C358.148 105.054 358.27 104.758 358.488 104.54C358.706 104.322 359.002 104.199 359.311 104.199H361.201C361.51 104.199 361.806 104.322 362.024 104.54C362.242 104.758 362.364 105.054 362.364 105.363V107.445H362.695C363.247 107.446 363.776 107.666 364.166 108.057C364.556 108.448 364.775 108.978 364.775 109.531V110.264C365.328 110.264 365.858 110.484 366.249 110.875C366.64 111.266 366.86 111.797 366.86 112.35V114.668H374.541V120.009H320.653V92.8503L321.693 93.6687C322.691 94.4423 323.499 95.4339 324.056 96.5678C324.613 97.7016 324.904 98.9478 324.907 100.211Z" fill="#737885"/>
</g>
<g opacity="0.2" clip-path="url(#clip5_292_2014)">
<path d="M191 119.522H194.015V118.76H195.175V119.522H198.955V117.376H199.605V116.606H200.779V117.152H201.339V117.83H202.365V119.525H203.206L204.296 118.432H205.442V113.986H206.677V118.399H207.238L207.585 118.054H208.126V115.838H208.538V118.037H209.023V116.636H209.608V118.318H210.191V117.533H211.276V118.452H212.055C211.679 117.023 210.841 115.252 208.972 114.849C208.188 114.675 207.478 114.26 206.941 113.663C206.289 112.943 205.927 112.007 205.926 111.035V110.416H218.452L219.755 82.1933C219.755 82.1933 218.894 81.7561 218.104 81.4479V80.4756L218.878 80.1814V79.663L217.816 78.7915L219.998 78.0014C219.998 78.0014 219.592 77.1607 220.531 76.9954C220.493 76.9379 220.47 76.8717 220.464 76.8031C220.459 76.7344 220.47 76.6654 220.498 76.6024C220.526 76.5394 220.569 76.4844 220.624 76.4424C220.679 76.4004 220.743 76.3728 220.811 76.3621C220.811 76.3621 220.494 75.8746 220.979 75.6504L221.45 74L221.89 75.6504C222.375 75.8746 222.058 76.3621 222.058 76.3621C222.127 76.3708 222.193 76.3969 222.25 76.4381C222.306 76.4792 222.351 76.534 222.38 76.5973C222.41 76.6606 222.423 76.7304 222.418 76.8C222.413 76.8697 222.39 76.9369 222.352 76.9954C223.291 77.1635 222.885 78.0014 222.885 78.0014L225.076 78.7915L224.014 79.663V80.1814L224.793 80.4756V81.4479C224.003 81.7561 223.142 82.1933 223.142 82.1933L224.443 110.407H236.968V111.027C236.967 111.998 236.605 112.935 235.953 113.655C235.416 114.252 234.706 114.666 233.922 114.84C231.549 115.356 230.84 118.107 230.632 119.522H231.843V118.76H233.003V119.522H236.783V117.376H237.433V116.606H238.607V117.152H239.167V117.83H240.19V119.525H241.031L242.135 118.43H243.278V113.986H244.514V118.399H245.074L245.422 118.054H245.96V115.838H246.366V118.037H246.851V116.636H247.436V118.318H248.019V117.533H249.095V118.452H249.894L250.541 119.094V120.358H230.545H212.352H191V119.522Z" fill="#737885"/>
</g>
<g opacity="0.2" clip-path="url(#clip6_292_2014)">
<path d="M311.086 44.06L312.3 46.9935L312.816 46.8855C312.733 46.0789 312.895 45.2649 313.282 44.5484C313.291 44.5298 313.302 44.5122 313.312 44.4939L315.264 45.3668L315.514 45.0986L313.711 43.9252C314.474 43.0221 315.597 42.3612 315.597 42.3612L315.044 41.8328L311.887 42.3134L308.983 40.1354C308.644 39.8812 308.292 39.6441 307.928 39.4252C307.429 39.1246 306.639 38.6557 305.74 38.1377C307.335 36.0281 312.406 34.1766 312.406 34.1766L311.567 33.4716L308.058 34.43L307.263 33.8008L306.574 34.147L307.123 34.7569L305.798 35.2942L304.848 34.8114L304.239 35.197L304.764 35.6416L302.518 36.3776C301.656 35.9382 300.863 35.5727 300.28 35.3749C298.84 34.8831 298.008 34.9137 297.577 35.0123C297.518 35.026 297.461 35.0516 297.412 35.0875C297.362 35.1234 297.321 35.1689 297.289 35.2212C297.258 35.2735 297.238 35.3315 297.229 35.3917C297.221 35.4519 297.226 35.5131 297.242 35.5715C297.565 36.6723 299.265 38.0177 301.215 39.253C301.215 40.1674 301.479 41.5957 301.479 41.5957L300.575 41.3319L300.603 42.2804L301.808 42.8794L302.042 44.126L300.933 44.0483L300.913 44.6378L302.134 45.1768L302.692 47.8222L304.113 48.4895C303.477 44.9671 303.917 41.8604 304.081 40.9221C305.679 41.7872 307.076 42.4566 307.645 42.7388C309.313 43.5621 311.086 44.06 311.086 44.06Z" fill="#7B7B7B"/>
</g>
</g>
<defs>
<clipPath id="clip0_292_2014">
<rect width="375" height="120" fill="white"/>
</clipPath>
<clipPath id="clip1_292_2014">
<rect width="122" height="60" fill="white" transform="translate(0 60)"/>
</clipPath>
<clipPath id="clip2_292_2014">
<rect width="59.5413" height="46.3659" fill="white" transform="translate(124 74)"/>
</clipPath>
<clipPath id="clip3_292_2014">
<rect width="15.9718" height="15.4114" fill="white" transform="translate(61.9888 31) rotate(15)"/>
</clipPath>
<clipPath id="clip4_292_2014">
<rect width="122" height="60" fill="white" transform="matrix(-1 0 0 1 374.541 60)"/>
</clipPath>
<clipPath id="clip5_292_2014">
<rect width="59.5413" height="46.3659" fill="white" transform="matrix(-1 0 0 1 250.541 74)"/>
</clipPath>
<clipPath id="clip6_292_2014">
<rect width="15.9718" height="15.4114" fill="white" transform="matrix(-0.965926 0.258819 0.258819 0.965926 312.552 31)"/>
</clipPath>
</defs>
</svg>
